<?xml version="1.0" encoding="UTF-8" standalone="no" ?>
<!DOCTYPE svg PUBLIC "-//W3C//DTD SVG 1.1//EN" "http://www.w3.org/Graphics/SVG/1.1/DTD/svg11.dtd">
<svg xmlns="http://www.w3.org/2000/svg" xmlns:xlink="http://www.w3.org/1999/xlink" version="1.1" width="1080" height="1080" viewBox="0 0 1080 1080" xml:space="preserve">
<desc>Created with Fabric.js 5.2.4</desc>
<defs>
</defs>
<g transform="matrix(1 0 0 1 540 540)" id="b2097d6b-9b18-4ac9-811f-20d368f0235f"  >
</g>
<g transform="matrix(1 0 0 1 540 540)" id="92ee9968-a649-4314-a5cb-ea99568d9f03"  >
<rect style="stroke: none; stroke-width: 1; stroke-dasharray: none; stroke-linecap: butt; stroke-dashoffset: 0; stroke-linejoin: miter; stroke-miterlimit: 4; fill: rgb(255,255,255); fill-rule: nonzero; opacity: 1; visibility: hidden;" vector-effect="non-scaling-stroke"  x="-540" y="-540" rx="0" ry="0" width="1080" height="1080" />
</g>
<g transform="matrix(1.95 0 0 1.95 553.59 519.42)"  >
<path style="stroke: none; stroke-width: 1; stroke-dasharray: none; stroke-linecap: butt; stroke-dashoffset: 0; stroke-linejoin: miter; stroke-miterlimit: 4; fill: rgb(0,0,0); fill-rule: nonzero; opacity: 1;" vector-effect="non-scaling-stroke"  transform=" translate(-350, -279.97)" d="M 599.59 243.99 C 599.59 175.111 470.06000000000006 132.49 350 132.49 C 288.625 132.49 226.74 143.412 180.1 162.506 C 128.748 183.506 100.41199999999999 212.459 100.41199999999999 243.986 C 100.41199999999999 259.498 107.0761 274.506 119.732 288.451 C 119.732 288.61897000000005 119.732 288.84162000000003 119.786687 289.00959 L 136.696687 379.16958999999997 L 136.864657 379.84146999999996 C 145.20845699999998 407.84146999999996 171.473657 427.44346999999993 200.704657 427.44346999999993 L 350.004657 426.82627999999994 L 499.354657 427.44346999999993 C 528.584657 427.44346999999993 554.850657 407.9004699999999 563.194657 379.84146999999996 L 580.272657 289.00946999999996 C 580.327345 288.78680999999995 580.327345 288.61884999999995 580.327345 288.45088 C 592.932345 274.50588 599.597345 259.49788 599.597345 243.98587999999998 z M 185.24 175.166 C 230.322 156.74 290.35 146.158 349.99 146.158 C 409.63 146.158 469.66 156.744 514.74 175.166 C 560.662 193.928 585.916 218.396 585.916 243.99 C 585.916 260.791 575.0530000000001 277.592 555.283 292.709 C 508.521 263.029 430.57300000000004 244.77100000000002 349.983 244.77100000000002 C 269.393 244.77100000000002 191.393 263.083 144.683 292.709 C 124.913 277.588 114.05 260.787 114.05 243.99 C 114.05 218.39600000000002 139.308 193.982 185.226 175.166 z M 286.15 383.376 L 449.5 268.296 C 464.844 271.4327 479.461 275.24129999999997 493.06600000000003 279.608 L 347.80600000000004 383.378 z M 195.767 320.376 C 181.04 314.6065 168.048 308.10999999999996 157.013 301.224 C 186.747 283.81 229.419 270.65 276.463 263.818 z M 305.017 260.45799999999997 C 319.85699999999997 259.16889999999995 334.919 258.44239999999996 349.986 258.44239999999996 C 352.78679999999997 258.44239999999996 355.529 258.49708799999996 358.3298 258.49708799999996 L 230.59979999999996 348.09908799999994 L 227.74429999999995 342.6654879999999 C 223.99039999999997 335.55218799999994 218.17009999999996 329.89548799999994 211.11129999999994 326.3684879999999 z M 380.841 259.3916 C 397.81 260.39939999999996 414.552 262.30179999999996 430.68100000000004 264.87989999999996 L 262.63100000000003 383.26989999999995 C 253.95130000000003 382.59801999999996 246.22500000000002 377.61369999999994 242.08000000000004 369.8289 L 236.98230000000004 360.25469999999996 z M 508.911 285.20759999999996 C 521.513 290.02399999999994 532.989 295.39859999999993 543.016 301.2236 C 529.352 309.7353 512.7189999999999 317.57559999999995 493.51199999999994 324.3526 C 484.44169999999997 327.544 476.87899999999996 334.0401 472.34399999999994 342.6646 L 457.9529999999999 369.8796 C 453.52719999999994 378.22339999999997 444.9059999999999 383.43059999999997 435.4409999999999 383.43059999999997 L 371.3159999999999 383.43450599999994 z M 549.958 376.32059999999996 C 543.2392 398.44159999999994 522.462 413.84059999999994 499.33299999999997 413.84059999999994 L 349.98299999999995 413.22340999999994 L 200.63299999999995 413.84059999999994 C 177.50399999999996 413.84059999999994 156.73099999999994 398.4425999999999 150.00799999999995 376.32059999999996 L 136.39899999999994 303.63259999999997 C 153.03199999999995 316.3436 175.15299999999993 327.76959999999997 201.97299999999996 337.23459999999994 C 207.79719999999995 339.3048999999999 212.66799999999995 343.5079999999999 215.63699999999994 349.0505999999999 L 230.02799999999993 376.2655999999999 C 236.85999999999993 389.0895999999999 250.07499999999993 397.0975999999999 264.63699999999994 397.0975999999999 L 435.37699999999995 397.0975999999999 C 449.881 397.0975999999999 463.15399999999994 389.1444999999999 469.98599999999993 376.2655999999999 L 484.3809999999999 349.0465999999999 C 487.3497999999999 343.5035999999999 492.1661999999999 339.3043999999999 498.0449999999999 337.2305999999999 C 524.9239999999999 327.7657999999999 546.9899999999999 316.3435999999999 563.6189999999999 303.62859999999995 z" stroke-linecap="round" />
</g>
<g transform="matrix(1.95 0 0 1.95 579.06 309.5)"  >
<path style="stroke: none; stroke-width: 1; stroke-dasharray: none; stroke-linecap: butt; stroke-dashoffset: 0; stroke-linejoin: miter; stroke-miterlimit: 4; fill: rgb(0,0,0); fill-rule: nonzero; opacity: 1;" vector-effect="non-scaling-stroke"  transform=" translate(-362.42, -172.37)" d="M 358.46 183.79 C 361.93269999999995 185.07909999999998 365.01079999999996 184.07125 367.58889999999997 181.6611 C 371.28419999999994 178.247 372.68659999999994 173.9345 372.12409999999994 168.9501 C 371.73347999999993 165.92669999999998 370.49909999999994 163.3485 367.81159999999994 161.66889999999998 C 366.74909999999994 161.05170999999999 365.4599999999999 160.77436999999998 364.2842999999999 160.3798 L 362.88589999999994 160.3798 C 362.77261999999996 160.434488 362.60464999999994 160.49308 362.4952799999999 160.49308 C 360.8155799999999 160.71573999999998 359.30387999999994 161.38761 358.0147799999999 162.45398 C 353.58897999999994 165.92668 351.5186799999999 172.25478 353.1436799999999 177.68398 C 354.0342999999999 180.43008 355.6592799999999 182.72307999999998 358.4600799999999 183.78948 z" stroke-linecap="round" />
</g>
<g transform="matrix(1.95 0 0 1.95 530.35 309.4)"  >
<path style="stroke: none; stroke-width: 1; stroke-dasharray: none; stroke-linecap: butt; stroke-dashoffset: 0; stroke-linejoin: miter; stroke-miterlimit: 4; fill: rgb(0,0,0); fill-rule: nonzero; opacity: 1;" vector-effect="non-scaling-stroke"  transform=" translate(-337.53, -172.31)" d="M 334.1 182.89 C 338.0219 185.35479999999998 342.61170000000004 184.515 345.245 180.81969999999998 C 347.4286 177.74159999999998 347.8192 174.26889999999997 347.038 170.68269999999998 C 346.14347000000004 166.5929 344.0692 163.29209999999998 340.206 161.3311 C 339.25288 160.82719 338.13570000000004 160.65922 337.0693 160.3233 L 335.6709 160.3233 C 335.55762000000004 160.377987 335.50293 160.43658 335.38965 160.43658 C 333.03805 160.71783 331.19045 161.89358 329.84665 163.74128 C 327.94435 166.42878 327.38185 169.45218 327.77635000000004 172.64358 C 328.44432000000006 176.95608 330.34665 180.53807999999998 334.10055000000006 182.88958 z" stroke-linecap="round" />
</g>
<g transform="matrix(1.95 0 0 1.95 501.51 349.74)"  >
<path style="stroke: none; stroke-width: 1; stroke-dasharray: none; stroke-linecap: butt; stroke-dashoffset: 0; stroke-linejoin: miter; stroke-miterlimit: 4; fill: rgb(0,0,0); fill-rule: nonzero; opacity: 1;" vector-effect="non-scaling-stroke"  transform=" translate(-322.79, -192.92)" d="M 317.97 202.11 C 319.9309 203.7897 322.16920000000005 204.8522 324.802 204.6842 C 328.4973 204.46154 330.8489 202.3873 332.08320000000003 199.028 C 334.26680000000005 193.0905 331.41132000000005 185.587 325.8684 182.45399999999998 C 320.9973 179.71179999999998 315.7314 181.39149999999998 313.6614 186.4852 C 313.27078 187.493 313.04421 188.61409999999998 312.76687000000004 189.62189999999998 L 312.76687000000004 192.25469999999999 C 312.82155700000004 192.42266999999998 312.88015 192.59063999999998 312.88015 192.75860999999998 C 313.48953 196.45390999999998 315.05595 199.64530999999997 317.96995000000004 202.11020999999997 z" stroke-linecap="round" />
</g>
<g transform="matrix(1.95 0 0 1.95 555.73 380.76)"  >
<path style="stroke: none; stroke-width: 1; stroke-dasharray: none; stroke-linecap: butt; stroke-dashoffset: 0; stroke-linejoin: miter; stroke-miterlimit: 4; fill: rgb(0,0,0); fill-rule: nonzero; opacity: 1;" vector-effect="non-scaling-stroke"  transform=" translate(-350.54, -208.8)" d="M 340.48 192.75 C 339.1909 194.6523 338.5777 196.7266 338.0738 198.9648 C 337.45661 201.9882 336.4488 204.9023 334.4332 207.2539 C 332.9215 209.0469 331.2418 210.7266 329.5621 212.29299999999998 C 326.98789999999997 214.75779999999997 325.1363 217.61329999999998 324.7457 221.2539 C 324.46445 223.77339999999998 325.13632 226.01559999999998 327.1519 227.69529999999997 C 329.89410000000004 229.93359999999998 333.14410000000004 230.66409999999996 336.5581 229.99219999999997 C 342.21430000000004 228.92969999999997 347.87010000000004 228.25779999999997 353.58110000000005 228.64839999999998 C 356.94050000000004 228.87105999999997 360.29990000000004 229.26558999999997 363.6041000000001 229.8789 C 366.1783000000001 230.32811999999998 368.6432000000001 230.26952999999997 371.10800000000006 229.37499 C 374.6353000000001 228.08589 376.59630000000004 225.34378999999998 376.37360000000007 221.75779 C 376.2603200000001 219.46089 375.58844000000005 217.22259 374.1353000000001 215.42969 C 372.9048000000001 213.86329 371.56110000000007 212.35159 370.04550000000006 211.00388999999998 C 366.3502000000001 207.64449 363.83070000000004 203.66798999999997 362.9322000000001 198.73789 C 362.70954000000006 197.56208999999998 362.3150100000001 196.38629 361.9244000000001 195.26519 C 360.1314000000001 190.39408999999998 355.76420000000013 187.37069 350.5574000000001 187.37069 C 346.3035000000001 187.37069 342.8855000000001 189.16369 340.4794000000001 192.74958999999998 z" stroke-linecap="round" />
</g>
<g transform="matrix(1.95 0 0 1.95 607.88 349.68)"  >
<path style="stroke: none; stroke-width: 1; stroke-dasharray: none; stroke-linecap: butt; stroke-dashoffset: 0; stroke-linejoin: miter; stroke-miterlimit: 4; fill: rgb(0,0,0); fill-rule: nonzero; opacity: 1;" vector-effect="non-scaling-stroke"  transform=" translate(-377.14, -192.9)" d="M 367.14 194.32 C 367.194687 197.73409999999998 367.97983999999997 200.3669 370.05019999999996 202.4958 C 372.68299999999994 205.1286 376.8275 205.406 380.35519999999997 203.33564 C 385.1169 200.48014 387.9138 194.32004 386.96459999999996 188.83164000000002 C 386.51537999999994 186.31214000000003 385.45289999999994 184.06994000000003 383.2107 182.55824 C 380.13259999999997 180.48794 376.9373 180.71054 373.85909999999996 182.55824 C 369.37859999999995 185.30434000000002 367.41769999999997 189.61684000000002 367.14029999999997 194.32024 z" stroke-linecap="round" />
</g>
</svg>