<?xml version="1.0" encoding="UTF-8" standalone="no" ?>
<!DOCTYPE svg PUBLIC "-//W3C//DTD SVG 1.1//EN" "http://www.w3.org/Graphics/SVG/1.1/DTD/svg11.dtd">
<svg xmlns="http://www.w3.org/2000/svg" xmlns:xlink="http://www.w3.org/1999/xlink" version="1.1" width="1080" height="1080" viewBox="0 0 1080 1080" xml:space="preserve">
<desc>Created with Fabric.js 5.2.4</desc>
<defs>
</defs>
<g transform="matrix(1 0 0 1 540 540)" id="d8bdaa1c-4fb4-430e-aec2-37ef20115343"  >
<rect style="stroke: none; stroke-width: 1; stroke-dasharray: none; stroke-linecap: butt; stroke-dashoffset: 0; stroke-linejoin: miter; stroke-miterlimit: 4; fill: rgb(255,255,255); fill-rule: nonzero; opacity: 1; visibility: hidden;" vector-effect="non-scaling-stroke"  x="-540" y="-540" rx="0" ry="0" width="1080" height="1080" />
</g>
<g transform="matrix(1 0 0 1 540 540)" id="350f5e6e-996c-48a7-97cb-1210975ac38b"  >
</g>
<g transform="matrix(1.76 0 0 1.76 540 540)"  >
<path style="stroke: none; stroke-width: 1; stroke-dasharray: none; stroke-linecap: butt; stroke-dashoffset: 0; stroke-linejoin: miter; stroke-miterlimit: 4; fill: rgb(0,0,0); fill-rule: nonzero; opacity: 1;" vector-effect="non-scaling-stroke"  transform=" translate(-350, -280)" d="M 551.25 105 L 525 105 L 525 87.5 C 524.988281 78.2188 521.3008 69.324 514.738 62.762 C 508.17520000000013 56.2 499.28100000000006 52.512 490.00000000000006 52.5 L 175.00000000000006 52.5 C 151.80100000000004 52.527344 129.56200000000007 61.7539 113.15600000000006 78.156 C 96.75400000000006 94.56200000000001 87.52700000000006 116.80100000000002 87.50000000000006 140 L 87.50000000000006 420 C 87.52734400000006 443.199 96.75390000000006 465.438 113.16000000000005 481.84000000000003 C 129.56200000000007 498.24600000000004 151.80100000000004 507.473 175.00000000000006 507.50000000000006 L 551.25 507.50000000000006 C 567.488 507.4804690000001 583.055 501.01950000000005 594.539 489.53900000000004 C 606.019 478.05500000000006 612.48 462.48800000000006 612.5 446.25000000000006 L 612.5 166.25000000000006 C 612.480469 150.01200000000006 606.0234 134.44100000000006 594.539 122.96100000000006 C 583.059 111.47700000000006 567.4879999999999 105.02000000000005 551.25 105.00000000000006 z M 507.5 87.5 L 507.5 337.37 C 502.2031 334.2177 496.164 332.538 490 332.5028 L 455 332.5028 L 455 70.00279999999998 L 490 70.00279999999998 C 494.6406 70.00670599999998 499.0859 71.85439999999998 502.367 75.13559999999998 C 505.64810000000006 78.41679999999998 507.4959 82.86219999999999 507.4998 87.50259999999999 z M 385 332.5 L 385 70 L 437.5 70 L 437.5 332.5 z M 105 140 C 105.019531 121.441 112.4023 103.648 125.527 90.527 C 138.648 77.402 156.441 70.019 175 70 L 367.5 70 L 367.5 332.5 L 175 332.5 C 147.414 332.527344 121.461 345.586 105 367.727 z M 551.25 490 L 175 490 C 149.992 490 126.88300000000001 476.656 114.37899999999999 455 C 101.87499999999997 433.344 101.87499999999999 406.656 114.37899999999999 385 C 126.883 363.344 149.992 350 175 350 L 490 350 C 496.2539 350 502.031 353.3359 505.156 358.75 C 508.281 364.1641 508.281 370.836 505.156 376.25 C 502.031 381.664 496.2537 385 490 385 L 175 385 C 162.496 385 150.941 391.6719 144.688 402.5 C 138.438 413.328 138.438 426.672 144.688 437.5 C 150.94189999999998 448.328 162.49699999999999 455 175 455 L 551.25 455 C 556.082 455 560 451.082 560 446.25 C 560 441.418 556.082 437.5 551.25 437.5 L 175 437.5 C 168.7461 437.5 162.969 434.1641 159.844 428.75 C 156.719 423.3359 156.719 416.664 159.844 411.25 C 162.969 405.836 168.7463 402.5 175 402.5 L 551.25 402.5 C 566.879 402.5 581.324 410.8398 589.137 424.375 C 596.9534 437.91 596.9534 454.59 589.137 468.125 C 581.3245 481.66 566.8789999999999 490 551.25 490 z M 551.25 385 L 520.301 385 C 523.3869000000001 379.6836 525.008 373.645 525.0002000000001 367.5 L 525.0002000000001 122.5 L 551.2502000000001 122.5 C 562.8482 122.511719 573.9692000000001 127.1289 582.1722000000001 135.328 C 590.3714000000001 143.5311 594.9882000000001 154.65200000000002 595.0002000000001 166.25 L 595.0002000000001 403.47 C 583.5082000000001 391.661 567.7272 385.00100000000003 551.2502000000001 385.00100000000003 z" stroke-linecap="round" />
</g>
</svg>