<?xml version="1.0" encoding="UTF-8" standalone="no" ?>
<!DOCTYPE svg PUBLIC "-//W3C//DTD SVG 1.1//EN" "http://www.w3.org/Graphics/SVG/1.1/DTD/svg11.dtd">
<svg xmlns="http://www.w3.org/2000/svg" xmlns:xlink="http://www.w3.org/1999/xlink" version="1.1" width="1080" height="1080" viewBox="0 0 1080 1080" xml:space="preserve">
<desc>Created with Fabric.js 5.2.4</desc>
<defs>
</defs>
<g transform="matrix(1 0 0 1 540 540)" id="0f43c331-d0d6-4070-832a-f3fa44e1189c"  >
<rect style="stroke: none; stroke-width: 1; stroke-dasharray: none; stroke-linecap: butt; stroke-dashoffset: 0; stroke-linejoin: miter; stroke-miterlimit: 4; fill: rgb(255,255,255); fill-rule: nonzero; opacity: 1; visibility: hidden;" vector-effect="non-scaling-stroke"  x="-540" y="-540" rx="0" ry="0" width="1080" height="1080" />
</g>
<g transform="matrix(1 0 0 1 540 540)" id="8df0d9d9-d04e-4357-baa7-3c242b329941"  >
</g>
<g transform="matrix(2.03 0 0 2.03 540 540)"  >
<path style="stroke: none; stroke-width: 1; stroke-dasharray: none; stroke-linecap: butt; stroke-dashoffset: 0; stroke-linejoin: miter; stroke-miterlimit: 4; fill: rgb(255,255,255); fill-rule: nonzero; opacity: 1;" vector-effect="non-scaling-stroke"  transform=" translate(-350, -280)" d="M 397.08 390.14 L 397.08 294.515 L 589.77 261.015 L 561.887 100.64499999999998 L 112.52699999999993 178.76999999999998 L 117.75749999999994 208.83599999999998 L 149.49949999999993 203.32039999999998 L 175.66349999999994 235.29739999999998 L 165.87439999999995 237.0005 L 149.22939999999994 233.93019999999999 L 146.92859999999993 220.6882 L 110.22559999999993 227.071 L 127.71359999999993 327.651 L 164.41659999999993 321.2721 L 162.11579999999992 308.0301 L 176.7447999999999 299.5184 L 221.8067999999999 291.6903 L 245.6587999999999 320.8383 L 369.0887999999999 299.3773 L 369.0887999999999 392.2603 C 357.7367999999999 398.1939 349.99079999999987 410.0843 349.99079999999987 423.78029999999995 C 349.99079999999987 443.42529999999994 365.9127999999999 459.35029999999995 385.55679999999984 459.35029999999995 C 398.5097999999998 459.35029999999995 409.84979999999985 452.41669999999993 416.06079999999986 442.06929999999994 L 534.4707999999998 442.06929999999994 L 534.4707999999998 415.3462999999999 L 420.1107999999998 415.3462999999999 C 417.2318999999998 403.5372999999999 408.4587999999998 394.02629999999994 397.0717999999998 390.1352999999999 z" stroke-linecap="round" />
</g>
</svg>