<?xml version="1.0" encoding="UTF-8" standalone="no" ?>
<!DOCTYPE svg PUBLIC "-//W3C//DTD SVG 1.1//EN" "http://www.w3.org/Graphics/SVG/1.1/DTD/svg11.dtd">
<svg xmlns="http://www.w3.org/2000/svg" xmlns:xlink="http://www.w3.org/1999/xlink" version="1.1" width="1080" height="1080" viewBox="0 0 1080 1080" xml:space="preserve">
<desc>Created with Fabric.js 5.2.4</desc>
<defs>
</defs>
<rect x="0" y="0" width="100%" height="100%" fill="transparent"></rect>
<g transform="matrix(1 0 0 1 540 540)" id="849c7b13-c481-4b5e-98fb-372a46f35a19"  >
<rect style="stroke: none; stroke-width: 1; stroke-dasharray: none; stroke-linecap: butt; stroke-dashoffset: 0; stroke-linejoin: miter; stroke-miterlimit: 4; fill: rgb(255,255,255); fill-rule: nonzero; opacity: 1; visibility: hidden;" vector-effect="non-scaling-stroke"  x="-540" y="-540" rx="0" ry="0" width="1080" height="1080" />
</g>
<g transform="matrix(1 0 0 1 540 540)" id="9b5504aa-5ecd-4ebd-92ff-3cf7e51c6c00"  >
</g>
<g transform="matrix(2.3 0 0 2.3 540 540)"  >
<path style="stroke: none; stroke-width: 1; stroke-dasharray: none; stroke-linecap: butt; stroke-dashoffset: 0; stroke-linejoin: miter; stroke-miterlimit: 4; fill: rgb(255,255,255); fill-rule: nonzero; opacity: 1;" vector-effect="non-scaling-stroke"  transform=" translate(-350.01, -279.99)" d="M 350 478.18 C 350 478.18 445.258 434.555 518.11 356.38 C 560.446 310.966 624.0600000000001 153.76999999999998 507.75100000000003 94.24000000000001 C 490.446 85.3923 473.98100000000005 81.80600000000001 458.63800000000003 81.80600000000001 C 394.34900000000005 81.80600000000001 349.99800000000005 144.58300000000003 349.99800000000005 144.58300000000003 C 349.99800000000005 144.58300000000003 305.701 81.80600000000003 241.35800000000006 81.80600000000003 C 226.01400000000007 81.80600000000003 209.49500000000006 85.39190000000002 192.24500000000006 94.24000000000002 C 75.93500000000006 153.76700000000002 139.60400000000007 310.96000000000004 181.88600000000005 356.38 C 254.74100000000004 434.61 349.9960000000001 478.18 349.9960000000001 478.18 z M 284.145 185.64 C 294.11379999999997 183.40169999999998 301.954 185.24937999999997 307.66499999999996 188.10479999999998 C 311.13769999999994 185.64 315.05559999999997 183.45639999999997 319.36799999999994 181.55399999999997 C 338.57499999999993 173.15559999999996 361.42299999999994 173.15559999999996 380.57499999999993 181.55399999999997 C 384.88749999999993 183.45629999999997 388.7507999999999 185.64379999999997 392.22299999999996 188.10479999999998 C 397.93389999999994 185.24929999999998 405.77399999999994 183.40169999999998 415.74299999999994 185.64 C 438.70399999999995 190.79229999999998 475.5519999999999 243.54199999999997 476.22299999999996 266.113 C 476.55893999999995 278.32 470.5121 289.41 460.32099999999997 295.121 C 455.6726 297.75379999999996 450.6882 299.0429 445.53599999999994 299.0429 L 444.91880999999995 299.0429 C 446.71180999999996 308.67569999999995 447.71960999999993 318.08189999999996 447.5516099999999 326.65189999999996 C 446.8250499999999 367.9249 394.57460999999995 383.77289999999994 350.00060999999994 384.88989999999995 L 349.88732999999996 384.88989999999995 C 305.19933 383.76879999999994 253.06332999999995 367.92089999999996 252.27832999999998 326.65189999999996 C 252.11036 318.08549999999997 253.11817 308.6749 254.91112999999999 299.0429 L 254.29394 299.0429 C 249.14164 299.0429 244.10294 297.75379999999996 239.50894 295.121 C 229.37194 289.4101 223.27094 278.26599999999996 223.60694 266.113 C 224.27882 243.547 261.12694 190.84699999999998 284.08694 185.64 z" stroke-linecap="round" />
</g>
<g transform="matrix(2.3 0 0 2.3 727.22 450.14)"  >
<path style="stroke: none; stroke-width: 1; stroke-dasharray: none; stroke-linecap: butt; stroke-dashoffset: 0; stroke-linejoin: miter; stroke-miterlimit: 4; fill: rgb(255,255,255); fill-rule: nonzero; opacity: 1;" vector-effect="non-scaling-stroke"  transform=" translate(-433.67, -241.8)" d="M 443.18 290.41 C 447.7738 290.91391000000004 452.2503 290.07406000000003 456.285 287.77720000000005 C 463.73420000000004 283.57800000000003 468.156 275.3432 467.879 266.32820000000004 C 467.26181 245.88720000000004 431.481 197.78520000000003 413.949 193.80820000000006 C 408.1248 192.51910000000007 403.363 193.02304000000007 399.445 194.25742000000005 C 400.33952999999997 195.15195000000006 401.238 195.99182000000005 402.0192 196.94492000000005 C 414.1172 211.44892000000004 434.2772 252.04992000000004 443.12420000000003 290.3509200000001 z" stroke-linecap="round" />
</g>
<g transform="matrix(2.3 0 0 2.3 342.86 450.11)"  >
<path style="stroke: none; stroke-width: 1; stroke-dasharray: none; stroke-linecap: butt; stroke-dashoffset: 0; stroke-linejoin: miter; stroke-miterlimit: 4; fill: rgb(255,255,255); fill-rule: nonzero; opacity: 1;" vector-effect="non-scaling-stroke"  transform=" translate(-266.3, -241.79)" d="M 243.71 287.79 C 247.74120000000002 290.0283 252.2217 290.8681 256.815 290.4228 C 265.7173 252.1178 285.823 211.5208 297.92 196.9578 C 298.70516000000003 196.00467999999998 299.59970000000004 195.16479999999999 300.49420000000003 194.2703 C 298.25590000000005 193.54373999999999 295.67780000000005 193.03979999999999 292.7676 193.03979999999999 C 290.69730000000004 193.03979999999999 288.4551 193.26245999999998 286.0488 193.82495999999998 C 268.52180000000004 197.80155999999997 232.73680000000002 245.90295999999998 232.11880000000002 266.34495999999996 C 231.83755000000002 275.41525999999993 236.318 283.64995999999996 243.71280000000002 287.79395999999997 z" stroke-linecap="round" />
</g>
<g transform="matrix(2.3 0 0 2.3 535.01 537.68)"  >
<path style="stroke: none; stroke-width: 1; stroke-dasharray: none; stroke-linecap: butt; stroke-dashoffset: 0; stroke-linejoin: miter; stroke-miterlimit: 4; fill: rgb(255,255,255); fill-rule: nonzero; opacity: 1;" vector-effect="non-scaling-stroke"  transform=" translate(-349.97, -279.92)" d="M 345.8 376.21 L 345.8 342.77599999999995 C 329.73 339.58459999999997 318.35900000000004 319.03399999999993 318.35900000000004 307.83099999999996 C 318.35900000000004 305.14349999999996 319.42150000000004 302.7333 321.49570000000006 300.83099999999996 C 328.3824000000001 294.4482 345.74170000000004 295.22939999999994 349.9997000000001 295.56539999999995 C 354.1989000000001 295.28414999999995 371.6167000000001 294.50289999999995 378.5037000000001 300.83099999999996 C 380.57400000000007 302.7333 381.6404000000001 305.14349999999996 381.6404000000001 307.83099999999996 C 381.6404000000001 318.97599999999994 370.2734000000001 339.585 354.19940000000014 342.77599999999995 L 354.19940000000014 376.2099999999999 C 372.84740000000016 375.20219999999995 438.48040000000015 368.6513999999999 439.2074000000001 326.42499999999995 C 439.99256000000014 285.15199999999993 411.3754000000001 221.25499999999994 395.5824000000001 202.38499999999993 C 391.15660000000014 197.11939999999993 384.9964000000001 192.69749999999993 377.2154000000001 189.22499999999994 C 368.7037000000001 185.47109999999995 359.2934000000001 183.62339999999995 349.9424000000001 183.62339999999995 C 340.59080000000006 183.62339999999995 331.2394000000001 185.47109999999995 322.7274000000001 189.22499999999994 C 314.9422000000001 192.63909999999993 308.7274000000001 197.06479999999993 304.3604000000001 202.32999999999993 C 288.5674000000001 221.31399999999994 259.9544000000001 285.20899999999995 260.7354000000001 326.42999999999995 C 261.5205600000001 368.59799999999996 326.75840000000005 375.20699999999994 345.74340000000007 376.2149999999999 z M 380.519 244.89 C 380.519 242.5931 382.42130000000003 240.6908 384.7182 240.6908 C 387.0151 240.6908 388.91740000000004 242.5931 388.91740000000004 244.89 L 388.91740000000004 253.34699999999998 C 388.91740000000004 255.64389999999997 387.0151 257.5462 384.7182 257.5462 C 382.42130000000003 257.5462 380.519 255.6439 380.519 253.347 z M 311.136 244.89 C 311.136 242.5931 313.03830000000005 240.6908 315.33520000000004 240.6908 C 317.63210000000004 240.6908 319.53440000000006 242.5931 319.53440000000006 244.89 L 319.53440000000006 253.34699999999998 C 319.53440000000006 255.64389999999997 317.63210000000004 257.5462 315.33520000000004 257.5462 C 313.03830000000005 257.5462 311.136 255.6439 311.136 253.347 z" stroke-linecap="round" />
</g>
<g transform="matrix(2.3 0 0 2.3 535.19 628.17)"  >
<path style="stroke: none; stroke-width: 1; stroke-dasharray: none; stroke-linecap: butt; stroke-dashoffset: 0; stroke-linejoin: miter; stroke-miterlimit: 4; fill: rgb(255,255,255); fill-rule: nonzero; opacity: 1;" vector-effect="non-scaling-stroke"  transform=" translate(-350.05, -319.32)" d="M 373.24 307.83 C 373.24 307.83 373.24 307.43937999999997 372.79078 306.99016 C 369.54467999999997 303.96676 357.72878 303.40426 350.33378 303.96676 L 349.71659 303.96676 C 348.09159 303.85348000000005 346.30249 303.79879 344.45099 303.79879 C 337.61899 303.79879 329.83399 304.63863 327.25999 307.04489 C 326.81077 307.43551 326.81077 307.66208 326.81077 307.88473 C 326.81077 315.72453 336.83377 334.87673 350.04877 334.87673 C 363.26376999999997 334.87673 373.28677 315.72473 373.28677 307.88473 z" stroke-linecap="round" />
</g>
</svg>