<?xml version="1.0" encoding="UTF-8" standalone="no" ?>
<!DOCTYPE svg PUBLIC "-//W3C//DTD SVG 1.1//EN" "http://www.w3.org/Graphics/SVG/1.1/DTD/svg11.dtd">
<svg xmlns="http://www.w3.org/2000/svg" xmlns:xlink="http://www.w3.org/1999/xlink" version="1.1" width="1080" height="1080" viewBox="0 0 1080 1080" xml:space="preserve">
<desc>Created with Fabric.js 5.2.4</desc>
<defs>
</defs>
<g transform="matrix(1 0 0 1 540 540)" id="4af6d38a-a0c2-4ed4-8b84-afbcc60b6285"  >
<rect style="stroke: none; stroke-width: 1; stroke-dasharray: none; stroke-linecap: butt; stroke-dashoffset: 0; stroke-linejoin: miter; stroke-miterlimit: 4; fill: rgb(255,255,255); fill-rule: nonzero; opacity: 1; visibility: hidden;" vector-effect="non-scaling-stroke"  x="-540" y="-540" rx="0" ry="0" width="1080" height="1080" />
</g>
<g transform="matrix(1 0 0 1 540 540)" id="a5022f9c-4f88-4ded-973a-105f85b3c35f"  >
</g>
<g transform="matrix(2.06 0 0 2.06 540.06 147.03)"  >
<path style="stroke: none; stroke-width: 1; stroke-dasharray: none; stroke-linecap: butt; stroke-dashoffset: 0; stroke-linejoin: miter; stroke-miterlimit: 4; fill: rgb(255,255,255); fill-rule: nonzero; opacity: 1;" vector-effect="non-scaling-stroke"  transform=" translate(-350.03, -88.93)" d="M 425.54 67.984 C 423.3564 60.87069999999999 416.8056 55.99999999999999 409.356 55.99999999999999 L 290.63599999999997 55.99999999999999 C 283.18679999999995 55.99999999999999 276.63599999999997 60.87109999999999 274.45199999999994 67.984 L 258.04599999999994 121.85499999999999 L 442.006 121.85499999999999 L 425.59999999999997 67.98399999999998 z" stroke-linecap="round" />
</g>
<g transform="matrix(2.06 0 0 2.06 236.19 956.81)"  >
<path style="stroke: none; stroke-width: 1; stroke-dasharray: none; stroke-linecap: butt; stroke-dashoffset: 0; stroke-linejoin: miter; stroke-miterlimit: 4; fill: rgb(255,255,255); fill-rule: nonzero; opacity: 1;" vector-effect="non-scaling-stroke"  transform=" translate(-202.28, -482.66)" d="M 163.07 485.91 C 163.07 495.93300000000005 171.1911 504 181.16 504 L 223.441 504 C 233.464 504 241.531 495.8789 241.531 485.91 L 241.531 461.324 L 163.019 461.324 L 163.019 485.91 z" stroke-linecap="round" />
</g>
<g transform="matrix(2.06 0 0 2.06 843.61 956.81)"  >
<path style="stroke: none; stroke-width: 1; stroke-dasharray: none; stroke-linecap: butt; stroke-dashoffset: 0; stroke-linejoin: miter; stroke-miterlimit: 4; fill: rgb(255,255,255); fill-rule: nonzero; opacity: 1;" vector-effect="non-scaling-stroke"  transform=" translate(-497.62, -482.66)" d="M 458.41 485.91 C 458.41 495.93300000000005 466.53110000000004 504 476.5 504 L 518.781 504 C 528.804 504 536.871 495.8789 536.871 485.91 L 536.871 461.324 L 458.359 461.324 L 458.359 485.91 z" stroke-linecap="round" />
</g>
<g transform="matrix(2.06 0 0 2.06 540.01 513.87)"  >
<path style="stroke: none; stroke-width: 1; stroke-dasharray: none; stroke-linecap: butt; stroke-dashoffset: 0; stroke-linejoin: miter; stroke-miterlimit: 4; fill: rgb(255,255,255); fill-rule: nonzero; opacity: 1;" vector-effect="non-scaling-stroke"  transform=" translate(-350, -267.29)" d="M 559.78 404.1 C 560.28391 404.1 560.7878 404.21328 561.2917 404.26797000000005 L 561.2917 342.83397 C 561.2917 331.80297 557.2019 321.16197 549.8117 312.98597 L 511.33869999999996 270.48197 L 491.29169999999993 153.89197 C 488.9400999999999 140.28296999999998 477.12369999999993 130.31796999999997 463.29169999999993 130.31796999999997 L 236.71169999999992 130.31796999999997 C 222.87969999999993 130.31796999999997 211.06369999999993 140.28676999999996 208.71169999999992 153.89197 L 188.66469999999993 270.48197 L 150.1916999999999 312.98597 C 142.8010999999999 321.16177 138.71169999999992 331.80197 138.71169999999992 342.83397 L 138.71169999999992 404.26797 C 139.2156099999999 404.26797 139.71949999999993 404.09999999999997 140.2233999999999 404.09999999999997 z M 428.24 358.514 C 428.24 371.452 417.713 382.034 404.72 382.034 C 391.728 382.034 382.095 372.3465 381.25500000000005 360.081 L 318.6460000000001 360.081 C 317.8061600000001 372.288 307.61500000000007 382.034 295.1810000000001 382.034 C 282.74700000000007 382.034 271.6610000000001 371.507 271.6610000000001 358.514 C 271.6610000000001 351.7367 274.4618000000001 345.522 279.27820000000014 341.15500000000003 C 274.5165000000001 336.7878 271.6610000000001 330.514 271.6610000000001 323.85 C 271.6610000000001 310.91200000000003 282.1880000000001 300.33000000000004 295.1810000000001 300.33000000000004 C 308.1730000000001 300.33000000000004 317.8060000000001 310.01750000000004 318.6460000000001 322.283 L 381.25500000000005 322.283 C 382.09484000000003 310.076 392.28600000000006 300.33000000000004 404.72 300.33000000000004 C 417.154 300.33000000000004 428.24 310.857 428.24 323.85 C 428.24 330.62730000000005 425.4392 336.788 420.6228 341.15500000000003 C 425.43919999999997 345.52220000000005 428.24 351.74100000000004 428.24 358.514 z M 487.209 323.963 C 501.936 323.963 513.92 336.451 513.92 351.795 C 513.92 367.139 501.936 379.627 487.20899999999995 379.627 C 472.4819999999999 379.627 460.49799999999993 367.139 460.49799999999993 351.795 C 460.49799999999993 336.451 472.4819999999999 323.963 487.20899999999995 323.963 z M 243.049 171.25300000000001 C 243.33025 169.12410000000003 245.1193 167.5577 247.1935 167.5577 L 452.7635 167.5577 C 454.8924 167.5577 456.6854 169.1241 456.908 171.25300000000001 L 469.115 269.366 C 469.28297000000003 270.54179999999997 468.89234 271.7722 468.10720000000003 272.6707 C 467.32204 273.56523 466.14630000000005 274.0691 464.9705 274.0691 L 234.9805 274.0691 C 233.8047 274.0691 232.62890000000002 273.56519 231.84380000000002 272.6707 C 231.05864000000003 271.77617000000004 230.668 270.5418 230.836 269.366 z M 212.811 323.913 C 227.538 323.913 239.522 336.401 239.522 351.745 C 239.522 367.089 227.53799999999998 379.577 212.81099999999998 379.577 C 198.08399999999997 379.577 186.09999999999997 367.089 186.09999999999997 351.745 C 186.09999999999997 336.401 198.08399999999997 323.913 212.81099999999998 323.913 z" stroke-linecap="round" />
</g>
<g transform="matrix(2.06 0 0 2.06 257.83 687.64)"  >
<path style="stroke: none; stroke-width: 1; stroke-dasharray: none; stroke-linecap: butt; stroke-dashoffset: 0; stroke-linejoin: miter; stroke-miterlimit: 4; fill: rgb(255,255,255); fill-rule: nonzero; opacity: 1;" vector-effect="non-scaling-stroke"  transform=" translate(-212.8, -351.79)" d="M 212.8 371.22 C 222.87800000000001 371.22 231.11200000000002 362.48560000000003 231.11200000000002 351.786 C 231.11200000000002 341.091 222.9362 332.352 212.8 332.352 C 202.6638 332.352 194.488 341.08639999999997 194.488 351.786 C 194.488 362.481 202.6638 371.22 212.8 371.22 z" stroke-linecap="round" />
</g>
<g transform="matrix(2.06 0 0 2.06 822.19 687.64)"  >
<path style="stroke: none; stroke-width: 1; stroke-dasharray: none; stroke-linecap: butt; stroke-dashoffset: 0; stroke-linejoin: miter; stroke-miterlimit: 4; fill: rgb(255,255,255); fill-rule: nonzero; opacity: 1;" vector-effect="non-scaling-stroke"  transform=" translate(-487.2, -351.79)" d="M 487.2 371.22 C 497.27799999999996 371.22 505.512 362.48560000000003 505.512 351.786 C 505.512 341.091 497.3362 332.352 487.2 332.352 C 477.06379999999996 332.352 468.888 341.08639999999997 468.888 351.786 C 468.888 362.481 477.06379999999996 371.22 487.2 371.22 z" stroke-linecap="round" />
</g>
<g transform="matrix(2.06 0 0 2.06 540.01 418.26)"  >
<path style="stroke: none; stroke-width: 1; stroke-dasharray: none; stroke-linecap: butt; stroke-dashoffset: 0; stroke-linejoin: miter; stroke-miterlimit: 4; fill: rgb(255,255,255); fill-rule: nonzero; opacity: 1;" vector-effect="non-scaling-stroke"  transform=" translate(-350, -220.81)" d="M 449.06 175.95 L 250.94 175.95 L 239.737 265.661 L 460.267 265.661 z" stroke-linecap="round" />
</g>
<g transform="matrix(2.06 0 0 2.06 540 854.09)"  >
<path style="stroke: none; stroke-width: 1; stroke-dasharray: none; stroke-linecap: butt; stroke-dashoffset: 0; stroke-linejoin: miter; stroke-miterlimit: 4; fill: rgb(255,255,255); fill-rule: nonzero; opacity: 1;" vector-effect="non-scaling-stroke"  transform=" translate(-349.99, -432.72)" d="M 140.22 412.5 L 559.77 412.5 C 567.6255 412.5 573.9929999999999 420.3555 573.9929999999999 426.723 L 573.9929999999999 438.707 C 573.9929999999999 446.5625 567.6257999999999 452.93 559.77 452.93 L 140.21999999999997 452.93 C 132.36449999999996 452.93 125.99699999999997 445.0745 125.99699999999997 438.707 L 125.99699999999997 426.723 C 125.99699999999997 418.8675 132.36419999999998 412.5 140.21999999999997 412.5 z" stroke-linecap="round" />
</g>
<g transform="matrix(2.06 0 0 2.06 540.02 665.89)"  >
<path style="stroke: none; stroke-width: 1; stroke-dasharray: none; stroke-linecap: butt; stroke-dashoffset: 0; stroke-linejoin: miter; stroke-miterlimit: 4; fill: rgb(255,255,255); fill-rule: nonzero; opacity: 1;" vector-effect="non-scaling-stroke"  transform=" translate(-350, -341.21)" d="M 411.38 337.4 C 416.6456 334.8805 419.8917 329.7281 419.8917 323.904 C 419.8917 315.5602 413.1144 308.783 404.77070000000003 308.783 C 396.4270000000001 308.783 389.64970000000005 315.56030000000004 389.64970000000005 323.904 C 389.64970000000005 324.57588 389.64970000000005 325.2478 389.76298 325.8649 C 389.93095000000005 327.0954 389.59501 328.3297 388.80986 329.22429999999997 C 388.0247 330.17742 386.84896000000003 330.68129999999996 385.61846 330.68129999999996 L 314.38846 330.68129999999996 C 313.15796 330.68129999999996 311.98226 330.12271 311.19706 329.22429999999997 C 310.4119 328.27117999999996 310.07596 327.04069999999996 310.24394 325.8649 C 310.35722 325.24771 310.35722 324.57579999999996 310.35722 323.904 C 310.35722 315.5602 303.57991999999996 308.783 295.23622 308.783 C 286.89252000000005 308.783 280.11522 315.56030000000004 280.11522 323.904 C 280.11522 329.6149 283.41992000000005 334.935 288.57222 337.4 C 290.02922 338.07187 290.92382000000003 339.5836 290.92382000000003 341.15389999999996 C 290.92382000000003 342.72029999999995 290.02929000000006 344.23199999999997 288.57222 344.9625 C 283.36522 347.5367 280.11522 352.74769999999995 280.11522 358.51349999999996 C 280.11522 366.85729999999995 286.89252000000005 373.63449999999995 295.23622 373.63449999999995 C 303.57991999999996 373.63449999999995 310.35722 366.8571999999999 310.35722 358.51349999999996 C 310.35722 357.84162 310.35722 357.1697 310.24394 356.5526 C 310.07597 355.3221 310.41191000000003 354.08779999999996 311.19706 353.1932 C 311.98222000000004 352.24008 313.15796 351.7362 314.38846 351.7362 L 385.61846 351.7362 C 386.84896000000003 351.7362 388.02466000000004 352.29479 388.80986 353.1932 C 389.59502000000003 354.14632 389.93096 355.3768 389.76298 356.5526 C 389.64970000000005 357.16979 389.64970000000005 357.8417 389.64970000000005 358.51349999999996 C 389.64970000000005 366.85729999999995 396.4270000000001 373.63449999999995 404.77070000000003 373.63449999999995 C 413.1144 373.63449999999995 419.8917 366.8571999999999 419.8917 358.51349999999996 C 419.8917 352.68929999999995 416.6456 347.48249999999996 411.38 344.9625 C 409.923 344.29062 408.9738 342.77889999999996 408.9738 341.15389999999996 C 408.9738 339.52889999999996 409.92692 338.07579999999996 411.38 337.34529999999995 z" stroke-linecap="round" />
</g>
</svg>