<?xml version="1.0" encoding="UTF-8" standalone="no" ?>
<!DOCTYPE svg PUBLIC "-//W3C//DTD SVG 1.1//EN" "http://www.w3.org/Graphics/SVG/1.1/DTD/svg11.dtd">
<svg xmlns="http://www.w3.org/2000/svg" xmlns:xlink="http://www.w3.org/1999/xlink" version="1.1" width="1080" height="1080" viewBox="0 0 1080 1080" xml:space="preserve">
<desc>Created with Fabric.js 5.2.4</desc>
<defs>
</defs>
<g transform="matrix(1 0 0 1 540 540)" id="90d9f874-6d42-4bfd-9450-72ba9738c835"  >
</g>
<g transform="matrix(1 0 0 1 540 540)" id="8df8cb36-544c-47cf-899e-cdb437f2c808"  >
<rect style="stroke: none; stroke-width: 1; stroke-dasharray: none; stroke-linecap: butt; stroke-dashoffset: 0; stroke-linejoin: miter; stroke-miterlimit: 4; fill: rgb(255,255,255); fill-rule: nonzero; opacity: 1; visibility: hidden;" vector-effect="non-scaling-stroke"  x="-540" y="-540" rx="0" ry="0" width="1080" height="1080" />
</g>
<g transform="matrix(1.45 0 0 1.45 540 700.21)"  >
<path style="stroke: none; stroke-width: 1; stroke-dasharray: none; stroke-linecap: butt; stroke-dashoffset: 0; stroke-linejoin: miter; stroke-miterlimit: 4; fill: rgb(255,255,255); fill-rule: evenodd; opacity: 1;" vector-effect="non-scaling-stroke"  transform=" translate(-350, -412.35)" d="M 63.387 293.85 C 55.1175 296.6078 46.852000000000004 299.36170000000004 44.094 310.38500000000005 C 30.313000000000002 373.77200000000005 16.535 439.9150000000001 0 503.2950000000001 C -2.7578 514.3180000000001 0 530.854 11.023 530.854 L 688.9730000000001 530.854 C 699.9960000000001 530.854 702.754 514.3190000000001 699.9960000000001 503.295 C 686.2150000000001 439.908 669.6800000000001 373.765 655.902 310.385 C 653.1442000000001 299.36199999999997 647.6325 296.604 636.609 293.84999999999997 z M 286.61699999999996 453.69000000000005 C 275.59399999999994 539.124 140.55699999999996 497.78400000000005 203.94099999999997 417.8620000000001 C 143.31199999999998 337.94000000000005 286.61699999999996 288.3320000000001 286.61699999999996 384.7920000000001 L 416.14699999999993 384.7920000000001 C 416.14699999999993 288.3350000000001 556.6969999999999 337.9400000000001 496.06899999999996 417.8620000000001 C 559.4559999999999 497.7840000000001 424.417 539.1220000000001 416.14699999999993 453.69000000000005 z" stroke-linecap="round" />
</g>
<g transform="matrix(1.45 0 0 1.45 529.07 321.38)"  >
<path style="stroke: none; stroke-width: 1; stroke-dasharray: none; stroke-linecap: butt; stroke-dashoffset: 0; stroke-linejoin: miter; stroke-miterlimit: 4; fill: rgb(255,255,255); fill-rule: evenodd; opacity: 1;" vector-effect="non-scaling-stroke"  transform=" translate(-342.46, -150.54)" d="M 77.164 252.51 C 68.8945 224.951 85.43350000000001 191.881 115.74600000000001 183.612 C 126.769 158.807 151.574 145.03 176.375 147.784 C 231.492 15.494 416.145 15.494 471.255 147.784 C 485.036 150.5418 496.06 156.05349999999999 504.325 164.319 C 562.2 147.784 617.3149999999999 194.635 609.045 252.507 L 77.15499999999997 252.507 z" stroke-linecap="round" />
</g>
</svg>