<?xml version="1.0" encoding="UTF-8" standalone="no" ?>
<!DOCTYPE svg PUBLIC "-//W3C//DTD SVG 1.1//EN" "http://www.w3.org/Graphics/SVG/1.1/DTD/svg11.dtd">
<svg xmlns="http://www.w3.org/2000/svg" xmlns:xlink="http://www.w3.org/1999/xlink" version="1.1" width="1080" height="1080" viewBox="0 0 1080 1080" xml:space="preserve">
<desc>Created with Fabric.js 5.2.4</desc>
<defs>
</defs>
<g transform="matrix(1 0 0 1 540 540)" id="f23d86bf-1b1e-48e1-b204-edf6d7df17c6"  >
<rect style="stroke: none; stroke-width: 1; stroke-dasharray: none; stroke-linecap: butt; stroke-dashoffset: 0; stroke-linejoin: miter; stroke-miterlimit: 4; fill: rgb(255,255,255); fill-rule: nonzero; opacity: 1; visibility: hidden;" vector-effect="non-scaling-stroke"  x="-540" y="-540" rx="0" ry="0" width="1080" height="1080" />
</g>
<g transform="matrix(1 0 0 1 540 540)" id="54857e35-51da-45d3-b661-89a5b6f9cab3"  >
</g>
<g transform="matrix(2.5 0 0 2.5 757.06 540)"  >
<path style="stroke: none; stroke-width: 1; stroke-dasharray: none; stroke-linecap: butt; stroke-dashoffset: 0; stroke-linejoin: miter; stroke-miterlimit: 4; fill: rgb(255,255,255); fill-rule: nonzero; opacity: 1;" vector-effect="non-scaling-stroke"  transform=" translate(-430.22, -280.01)" d="M 316.16 420.5 C 306.129 420.5 300.69500000000005 407.477 309.9725 400.516 L 456.1025 280.00600000000003 L 309.9725 159.51600000000002 C 300.6913 152.5355 306.12480000000005 139.51200000000003 316.16 139.51200000000003 L 387.26200000000006 139.51200000000003 C 390.23470000000003 139.51200000000003 392.93780000000004 140.75420000000003 394.95340000000004 142.64480000000003 L 551.2234000000001 271.5648 C 556.657 276.0218 556.5125 284.1628 551.1218400000001 288.51779999999997 L 394.96184000000017 417.3778 C 392.96574000000015 419.2684 390.2391400000002 420.51059999999995 387.2704400000002 420.51059999999995 z" stroke-linecap="round" />
</g>
<g transform="matrix(2.5 0 0 2.5 355.05 540)"  >
<path style="stroke: none; stroke-width: 1; stroke-dasharray: none; stroke-linecap: butt; stroke-dashoffset: 0; stroke-linejoin: miter; stroke-miterlimit: 4; fill: rgb(255,255,255); fill-rule: nonzero; opacity: 1;" vector-effect="non-scaling-stroke"  transform=" translate(-269.78, -280.01)" d="M 155.75 420.5 C 145.695 420.5 140.266 407.477 149.543 400.516 L 295.673 280.00600000000003 L 149.543 159.51600000000002 C 140.2618 152.5355 145.6953 139.51200000000003 155.75 139.51200000000003 L 226.832 139.51200000000003 C 229.8242 139.51200000000003 232.53119999999998 140.75420000000003 234.4843 142.64480000000003 L 390.8143 271.5648 C 396.1854 276.0218 396.0838 284.1628 390.71274 288.51779999999997 L 234.48274 417.3778 C 232.52964 419.2684 229.82254 420.51059999999995 226.83044 420.51059999999995 z" stroke-linecap="round" />
</g>
</svg>