<?xml version="1.0" encoding="UTF-8" standalone="no" ?>
<!DOCTYPE svg PUBLIC "-//W3C//DTD SVG 1.1//EN" "http://www.w3.org/Graphics/SVG/1.1/DTD/svg11.dtd">
<svg xmlns="http://www.w3.org/2000/svg" xmlns:xlink="http://www.w3.org/1999/xlink" version="1.1" width="1080" height="1080" viewBox="0 0 1080 1080" xml:space="preserve">
<desc>Created with Fabric.js 5.2.4</desc>
<defs>
</defs>
<g transform="matrix(1 0 0 1 540 540)" id="807b208e-1c30-4ab9-a4d6-a75c5ae166dc"  >
<rect style="stroke: none; stroke-width: 1; stroke-dasharray: none; stroke-linecap: butt; stroke-dashoffset: 0; stroke-linejoin: miter; stroke-miterlimit: 4; fill: rgb(255,255,255); fill-rule: nonzero; opacity: 1; visibility: hidden;" vector-effect="non-scaling-stroke"  x="-540" y="-540" rx="0" ry="0" width="1080" height="1080" />
</g>
<g transform="matrix(1 0 0 1 540 540)" id="7390e797-980c-4cae-8d6e-b3f2e63fa2ec"  >
</g>
<g transform="matrix(1.76 0 0 1.76 539.52 708.15)"  >
<path style="stroke: none; stroke-width: 1; stroke-dasharray: none; stroke-linecap: butt; stroke-dashoffset: 0; stroke-linejoin: miter; stroke-miterlimit: 4; fill: rgb(255,255,255); fill-rule: nonzero; opacity: 1;" vector-effect="non-scaling-stroke"  transform=" translate(-350, -374.08)" d="M 532.56 415.52 L 530.8802999999999 409.9223 L 527.5208999999999 400.9614 L 525.2825999999999 395.3598 L 519.1223999999999 384.1608 L 510.72009999999983 373.5198 L 499.5210999999998 363.4418 L 486.6420999999998 351.6798 L 476.0010999999998 341.6018 L 465.9230999999998 330.39880000000005 L 457.5207999999998 319.19980000000004 L 449.68099999999976 307.44180000000006 L 441.2825999999998 291.76180000000005 L 436.23959999999977 281.12080000000003 L 430.0793999999998 269.35880000000003 L 422.23959999999977 256.4798 L 413.2825999999998 244.7178 L 407.1223999999998 238.5576 L 400.9621999999998 232.9599 L 392.5598999999998 226.7997 L 382.4818999999998 222.3192 L 369.6028999999998 217.8387 L 356.7198999999998 216.159 L 343.28189999999984 216.159 L 330.39889999999986 217.8387 L 311.9218999999999 224.55749999999998 L 293.99989999999985 236.87749999999997 L 282.23789999999985 248.63949999999997 L 274.96059999999983 259.83849999999995 L 267.6793999999998 272.7175 L 258.1598999999998 292.31949999999995 L 249.1989999999998 309.67849999999993 L 239.1209999999998 323.1194999999999 L 226.80099999999982 338.7994999999999 L 190.39899999999983 372.3974999999999 L 187.03959999999984 375.1982999999999 L 178.64119999999983 386.9602999999999 L 171.92239999999984 400.3982999999999 L 168.00049999999985 417.1992999999999 L 165.76219999999984 432.32029999999986 L 165.19969999999984 449.12129999999985 L 166.87939999999983 460.32029999999986 L 171.92239999999984 476.00029999999987 L 179.19969999999984 490.5592999999999 L 187.03949999999983 500.6412999999999 L 197.12149999999983 510.71929999999986 L 210.55949999999982 519.6801999999999 L 226.23949999999982 526.9613999999999 L 238.00149999999982 529.7621999999999 L 255.92349999999982 530.3207899999999 L 273.2824999999998 526.3988899999998 L 283.9234999999998 521.3597899999999 L 288.40009999999984 518.0003899999998 L 298.48209999999983 512.3987899999998 L 308.0015999999998 506.8010899999999 L 316.3999999999998 501.76198999999986 L 325.3608999999998 497.84008999999986 L 332.6420999999998 494.48068999999987 L 341.0404999999998 492.23848999999984 L 350.00139999999976 491.67989999999986 L 360.6423999999998 493.3595999999999 L 368.4821999999998 495.0392999999999 L 381.3611999999998 501.1994999999999 L 397.04119999999983 509.0392999999999 L 409.9241999999998 517.4415999999999 L 421.6821999999998 524.1603999999999 L 433.4441999999998 529.1994999999998 L 444.6431999999998 531.4416999999999 L 454.1626999999998 532.0002899999998 L 462.0024999999998 531.4416999999999 L 474.3224999999998 528.0783999999999 L 490.0024999999998 520.8010999999999 L 501.20149999999984 512.9612999999999 L 512.9634999999998 501.19929999999994 L 521.3618999999999 490.0002999999999 L 528.6430999999999 474.87929999999994 L 533.1235999999999 460.3202999999999 L 534.8032999999999 448.0002999999999 L 534.8032999999999 435.1212999999999 L 534.2407999999999 427.8400999999999 z" stroke-linecap="round" />
</g>
<g transform="matrix(1.76 0 0 1.76 677.5 245.32)"  >
<path style="stroke: none; stroke-width: 1; stroke-dasharray: none; stroke-linecap: butt; stroke-dashoffset: 0; stroke-linejoin: miter; stroke-miterlimit: 4; fill: rgb(255,255,255); fill-rule: nonzero; opacity: 1;" vector-effect="non-scaling-stroke"  transform=" translate(-427.68, -113.94)" d="M 436.75 28.176 C 469.96500000000003 31.691599999999998 492.832 72.938 487.824 120.305 C 482.8123 167.672 451.82 203.223 418.601 199.707 C 385.38599999999997 196.1953 362.519 154.945 367.527 107.57799999999999 C 372.5387 60.21099999999999 403.531 24.659999999999982 436.75 28.175999999999988" stroke-linecap="round" />
</g>
<g transform="matrix(1.76 0 0 1.76 405.2 244.92)"  >
<path style="stroke: none; stroke-width: 1; stroke-dasharray: none; stroke-linecap: butt; stroke-dashoffset: 0; stroke-linejoin: miter; stroke-miterlimit: 4; fill: rgb(255,255,255); fill-rule: nonzero; opacity: 1;" vector-effect="non-scaling-stroke"  transform=" translate(-272.16, -113.71)" d="M 332.31 107.35 C 337.3217 154.71699999999998 314.455 195.96699999999998 281.236 199.47899999999998 C 248.017 202.9946 217.029 167.444 212.017 120.07699999999998 C 207.0053 72.70999999999998 229.87199999999999 31.463999999999984 263.091 27.94799999999998 C 296.31 24.436299999999978 327.302 59.98699999999998 332.31 107.34999999999998" stroke-linecap="round" />
</g>
<g transform="matrix(1.76 0 0 1.76 875.86 481.73)"  >
<path style="stroke: none; stroke-width: 1; stroke-dasharray: none; stroke-linecap: butt; stroke-dashoffset: 0; stroke-linejoin: miter; stroke-miterlimit: 4; fill: rgb(255,255,255); fill-rule: nonzero; opacity: 1;" vector-effect="non-scaling-stroke"  transform=" translate(-539.78, -247.54)" d="M 558.41 163.91 C 591.015 171.1717 609.105 214.504 598.8199999999999 260.69100000000003 C 588.531 306.879 553.761 338.437 521.156 331.175 C 488.554 323.9133 470.46099999999996 280.581 480.74999999999994 234.394 C 491.03499999999997 188.20600000000002 525.809 156.64800000000002 558.41 163.91000000000003" stroke-linecap="round" />
</g>
<g transform="matrix(1.76 0 0 1.76 204.14 481.7)"  >
<path style="stroke: none; stroke-width: 1; stroke-dasharray: none; stroke-linecap: butt; stroke-dashoffset: 0; stroke-linejoin: miter; stroke-miterlimit: 4; fill: rgb(255,255,255); fill-rule: nonzero; opacity: 1;" vector-effect="non-scaling-stroke"  transform=" translate(-160.15, -247.53)" d="M 219.19 234.38 C 229.475 280.568 211.3853 323.9 178.78 331.161 C 146.178 338.4227 111.409 306.864 101.12 260.677 C 90.83500000000001 214.48900000000003 108.9247 171.15700000000004 141.526 163.89600000000002 C 174.131 156.63430000000002 208.901 188.193 219.19 234.38" stroke-linecap="round" />
</g>
</svg>