<?xml version="1.0" encoding="UTF-8" standalone="no" ?>
<!DOCTYPE svg PUBLIC "-//W3C//DTD SVG 1.1//EN" "http://www.w3.org/Graphics/SVG/1.1/DTD/svg11.dtd">
<svg xmlns="http://www.w3.org/2000/svg" xmlns:xlink="http://www.w3.org/1999/xlink" version="1.1" width="1080" height="1080" viewBox="0 0 1080 1080" xml:space="preserve">
<desc>Created with Fabric.js 5.2.4</desc>
<defs>
</defs>
<g transform="matrix(1 0 0 1 540 540)" id="b247a851-ae7c-4d2e-baf4-e4f95aefa005"  >
<rect style="stroke: none; stroke-width: 1; stroke-dasharray: none; stroke-linecap: butt; stroke-dashoffset: 0; stroke-linejoin: miter; stroke-miterlimit: 4; fill: rgb(255,255,255); fill-rule: nonzero; opacity: 1; visibility: hidden;" vector-effect="non-scaling-stroke"  x="-540" y="-540" rx="0" ry="0" width="1080" height="1080" />
</g>
<g transform="matrix(1 0 0 1 540 540)" id="f72c56bd-ee3f-421b-85eb-337ffdf61da8"  >
</g>
<g transform="matrix(2.04 0 0 2.04 945.67 193.42)"  >
<path style="stroke: none; stroke-width: 1; stroke-dasharray: none; stroke-linecap: butt; stroke-dashoffset: 0; stroke-linejoin: miter; stroke-miterlimit: 4; fill: rgb(255,255,255); fill-rule: nonzero; opacity: 1;" vector-effect="non-scaling-stroke"  transform=" translate(-559.44, -109.97)" d="M 563.92 102.48 C 561.6817 101.92141000000001 558.8809 102.48 556.6388 103.6011 C 551.0372 105.8394 548.2403999999999 110.8823 549.92 114.24210000000001 C 550.4785899999999 114.80069 550.4785899999999 115.3632 551.0410999999999 115.9218 C 553.2793999999999 118.1601 557.7598999999999 118.1601 562.2400999999999 116.48039 C 567.8416999999998 114.24209 570.6384999999999 109.19919 568.9588999999999 105.83939 C 568.3963999999999 103.60109 566.7166999999998 102.47999 563.9197999999999 102.47999 z" stroke-linecap="round" />
</g>
<g transform="matrix(2.04 0 0 2.04 873.81 128.01)"  >
<path style="stroke: none; stroke-width: 1; stroke-dasharray: none; stroke-linecap: butt; stroke-dashoffset: 0; stroke-linejoin: miter; stroke-miterlimit: 4; fill: rgb(255,255,255); fill-rule: nonzero; opacity: 1;" vector-effect="non-scaling-stroke"  transform=" translate(-524.15, -77.84)" d="M 520.8 87.922 C 524.7219 89.0431 529.1984 85.6837 530.8779999999999 80.0822 C 531.9990999999999 77.2814 531.9990999999999 75.0431 531.4365899999999 72.801 C 530.8779999999999 70.5627 529.7568899999999 68.3205 527.5146899999999 67.7619 C 523.5927899999998 66.6408 519.1162899999998 70.00019999999999 517.4366899999999 75.6017 C 515.7569899999999 80.0822 516.3155899999999 84.56259999999999 519.1163899999999 86.80069999999999 C 519.1202959999999 86.80069999999999 519.6788899999999 87.35928999999999 520.7999899999999 87.92179999999999 z" stroke-linecap="round" />
</g>
<g transform="matrix(2.04 0 0 2.04 949.35 150.58)"  >
<path style="stroke: none; stroke-width: 1; stroke-dasharray: none; stroke-linecap: butt; stroke-dashoffset: 0; stroke-linejoin: miter; stroke-miterlimit: 4; fill: rgb(255,255,255); fill-rule: nonzero; opacity: 1;" vector-effect="non-scaling-stroke"  transform=" translate(-561.24, -88.92)" d="M 556.64 81.762 C 553.8392 84.0003 551.6009 86.8011 549.9212 89.6018 C 548.8001 92.40259999999999 548.8001 95.2034 549.9212 97.4416 C 549.9212 98.00018999999999 550.47979 98.00018999999999 550.47979 98.00018999999999 C 552.15949 99.12128999999999 554.40169 100.23848999999998 557.19859 99.67988999999999 C 559.99939 99.12129999999999 563.35879 98.00018999999999 566.15949 95.75798999999999 C 572.31969 91.27748999999999 575.12039 84.55899 572.31969 80.63699 C 570.07749 76.71898999999999 562.80019 77.28148999999999 556.6396900000001 81.76199 z" stroke-linecap="round" />
</g>
<g transform="matrix(2.04 0 0 2.04 916.74 118.69)"  >
<path style="stroke: none; stroke-width: 1; stroke-dasharray: none; stroke-linecap: butt; stroke-dashoffset: 0; stroke-linejoin: miter; stroke-miterlimit: 4; fill: rgb(255,255,255); fill-rule: nonzero; opacity: 1;" vector-effect="non-scaling-stroke"  transform=" translate(-545.23, -73.26)" d="M 537.6 85.121 C 539.8383 86.2421 542.6391 86.2421 545.4398 84.56241 C 548.2406 82.88271 550.4789 80.64051 552.721 77.84361 C 556.6429 71.12481 556.6429 63.84361 552.721 61.60561 C 548.7991 58.804809999999996 542.08 62.1642 538.162 68.88681 C 535.9198 72.23841 534.7987 75.60161 534.7987 78.39851 C 534.7987 81.19931 535.35729 83.43761 537.037 84.55871 C 537.037 85.12121 537.5995 85.12121 537.5995 85.12121 z" stroke-linecap="round" />
</g>
<g transform="matrix(2.04 0 0 2.04 881.22 192.15)"  >
<path style="stroke: none; stroke-width: 1; stroke-dasharray: none; stroke-linecap: butt; stroke-dashoffset: 0; stroke-linejoin: miter; stroke-miterlimit: 4; fill: rgb(255,255,255); fill-rule: nonzero; opacity: 1;" vector-effect="non-scaling-stroke"  transform=" translate(-527.77, -108.79)" d="M 543.76 91.84 C 543.76 91.84 543.1975 91.84 543.76 91.84 C 542.6389 91.28141000000001 542.0803 90.7189 541.5217 90.1603 C 538.7209 88.48060000000001 534.2405 88.48060000000001 533.1233 88.48060000000001 L 521.9243 90.1603 C 516.3227 90.71889 512.4048 92.3986 510.1623 95.76190000000001 C 506.2404 101.36350000000002 508.4826 108.64090000000002 508.4826 109.20290000000001 C 509.6037 112.00370000000001 510.7209 114.24200000000002 512.4045 115.92170000000002 C 514.6428 118.16000000000001 517.4436 118.72250000000001 518.5647 119.28110000000001 C 519.12329 121.5194 521.9241000000001 127.1209 529.2057 128.8006 C 529.76429 128.8006 537.0455 130.4803 542.6467 125.99980000000001 C 546.0061000000001 123.19900000000001 547.1272 119.281 547.1272 114.23780000000001 L 547.68579 102.4758 C 547.68579 101.91721000000001 547.1272 96.8742 545.44749 94.63600000000001 C 544.8771800000001 92.96020000000001 544.31859 92.39770000000001 543.75999 91.83910000000002 z" stroke-linecap="round" />
</g>
<g transform="matrix(2.04 0 0 2.04 730.24 248.68)"  >
<path style="stroke: none; stroke-width: 1; stroke-dasharray: none; stroke-linecap: butt; stroke-dashoffset: 0; stroke-linejoin: miter; stroke-miterlimit: 4; fill: rgb(255,255,255); fill-rule: nonzero; opacity: 1;" vector-effect="non-scaling-stroke"  transform=" translate(-559.44, -109.97)" d="M 563.92 102.48 C 561.6817 101.92141000000001 558.8809 102.48 556.6388 103.6011 C 551.0372 105.8394 548.2403999999999 110.8823 549.92 114.24210000000001 C 550.4785899999999 114.80069 550.4785899999999 115.3632 551.0410999999999 115.9218 C 553.2793999999999 118.1601 557.7598999999999 118.1601 562.2400999999999 116.48039 C 567.8416999999998 114.24209 570.6384999999999 109.19919 568.9588999999999 105.83939 C 568.3963999999999 103.60109 566.7166999999998 102.47999 563.9197999999999 102.47999 z" stroke-linecap="round" />
</g>
<g transform="matrix(2.04 0 0 2.04 658.38 183.27)"  >
<path style="stroke: none; stroke-width: 1; stroke-dasharray: none; stroke-linecap: butt; stroke-dashoffset: 0; stroke-linejoin: miter; stroke-miterlimit: 4; fill: rgb(255,255,255); fill-rule: nonzero; opacity: 1;" vector-effect="non-scaling-stroke"  transform=" translate(-524.15, -77.84)" d="M 520.8 87.922 C 524.7219 89.0431 529.1984 85.6837 530.8779999999999 80.0822 C 531.9990999999999 77.2814 531.9990999999999 75.0431 531.4365899999999 72.801 C 530.8779999999999 70.5627 529.7568899999999 68.3205 527.5146899999999 67.7619 C 523.5927899999998 66.6408 519.1162899999998 70.00019999999999 517.4366899999999 75.6017 C 515.7569899999999 80.0822 516.3155899999999 84.56259999999999 519.1163899999999 86.80069999999999 C 519.1202959999999 86.80069999999999 519.6788899999999 87.35928999999999 520.7999899999999 87.92179999999999 z" stroke-linecap="round" />
</g>
<g transform="matrix(2.04 0 0 2.04 733.92 205.84)"  >
<path style="stroke: none; stroke-width: 1; stroke-dasharray: none; stroke-linecap: butt; stroke-dashoffset: 0; stroke-linejoin: miter; stroke-miterlimit: 4; fill: rgb(255,255,255); fill-rule: nonzero; opacity: 1;" vector-effect="non-scaling-stroke"  transform=" translate(-561.24, -88.92)" d="M 556.64 81.762 C 553.8392 84.0003 551.6009 86.8011 549.9212 89.6018 C 548.8001 92.40259999999999 548.8001 95.2034 549.9212 97.4416 C 549.9212 98.00018999999999 550.47979 98.00018999999999 550.47979 98.00018999999999 C 552.15949 99.12128999999999 554.40169 100.23848999999998 557.19859 99.67988999999999 C 559.99939 99.12129999999999 563.35879 98.00018999999999 566.15949 95.75798999999999 C 572.31969 91.27748999999999 575.12039 84.55899 572.31969 80.63699 C 570.07749 76.71898999999999 562.80019 77.28148999999999 556.6396900000001 81.76199 z" stroke-linecap="round" />
</g>
<g transform="matrix(2.04 0 0 2.04 701.31 173.95)"  >
<path style="stroke: none; stroke-width: 1; stroke-dasharray: none; stroke-linecap: butt; stroke-dashoffset: 0; stroke-linejoin: miter; stroke-miterlimit: 4; fill: rgb(255,255,255); fill-rule: nonzero; opacity: 1;" vector-effect="non-scaling-stroke"  transform=" translate(-545.23, -73.26)" d="M 537.6 85.121 C 539.8383 86.2421 542.6391 86.2421 545.4398 84.56241 C 548.2406 82.88271 550.4789 80.64051 552.721 77.84361 C 556.6429 71.12481 556.6429 63.84361 552.721 61.60561 C 548.7991 58.804809999999996 542.08 62.1642 538.162 68.88681 C 535.9198 72.23841 534.7987 75.60161 534.7987 78.39851 C 534.7987 81.19931 535.35729 83.43761 537.037 84.55871 C 537.037 85.12121 537.5995 85.12121 537.5995 85.12121 z" stroke-linecap="round" />
</g>
<g transform="matrix(2.04 0 0 2.04 665.79 247.4)"  >
<path style="stroke: none; stroke-width: 1; stroke-dasharray: none; stroke-linecap: butt; stroke-dashoffset: 0; stroke-linejoin: miter; stroke-miterlimit: 4; fill: rgb(255,255,255); fill-rule: nonzero; opacity: 1;" vector-effect="non-scaling-stroke"  transform=" translate(-527.77, -108.79)" d="M 543.76 91.84 C 543.76 91.84 543.1975 91.84 543.76 91.84 C 542.6389 91.28141000000001 542.0803 90.7189 541.5217 90.1603 C 538.7209 88.48060000000001 534.2405 88.48060000000001 533.1233 88.48060000000001 L 521.9243 90.1603 C 516.3227 90.71889 512.4048 92.3986 510.1623 95.76190000000001 C 506.2404 101.36350000000002 508.4826 108.64090000000002 508.4826 109.20290000000001 C 509.6037 112.00370000000001 510.7209 114.24200000000002 512.4045 115.92170000000002 C 514.6428 118.16000000000001 517.4436 118.72250000000001 518.5647 119.28110000000001 C 519.12329 121.5194 521.9241000000001 127.1209 529.2057 128.8006 C 529.76429 128.8006 537.0455 130.4803 542.6467 125.99980000000001 C 546.0061000000001 123.19900000000001 547.1272 119.281 547.1272 114.23780000000001 L 547.68579 102.4758 C 547.68579 101.91721000000001 547.1272 96.8742 545.44749 94.63600000000001 C 544.8771800000001 92.96020000000001 544.31859 92.39770000000001 543.75999 91.83910000000002 z" stroke-linecap="round" />
</g>
<g transform="matrix(0 0 0 0 0 0)"  >
<g style=""   >
</g>
</g>
<g transform="matrix(0 0 0 0 0 0)"  >
<g style=""   >
</g>
</g>
<g transform="matrix(2.04 0 0 2.04 812.44 463.42)"  >
<path style="stroke: none; stroke-width: 1; stroke-dasharray: none; stroke-linecap: butt; stroke-dashoffset: 0; stroke-linejoin: miter; stroke-miterlimit: 4; fill: rgb(255,255,255); fill-rule: nonzero; opacity: 1;" vector-effect="non-scaling-stroke"  transform=" translate(-559.44, -109.97)" d="M 563.92 102.48 C 561.6817 101.92141000000001 558.8809 102.48 556.6388 103.6011 C 551.0372 105.8394 548.2403999999999 110.8823 549.92 114.24210000000001 C 550.4785899999999 114.80069 550.4785899999999 115.3632 551.0410999999999 115.9218 C 553.2793999999999 118.1601 557.7598999999999 118.1601 562.2400999999999 116.48039 C 567.8416999999998 114.24209 570.6384999999999 109.19919 568.9588999999999 105.83939 C 568.3963999999999 103.60109 566.7166999999998 102.47999 563.9197999999999 102.47999 z" stroke-linecap="round" />
</g>
<g transform="matrix(2.04 0 0 2.04 740.58 398.01)"  >
<path style="stroke: none; stroke-width: 1; stroke-dasharray: none; stroke-linecap: butt; stroke-dashoffset: 0; stroke-linejoin: miter; stroke-miterlimit: 4; fill: rgb(255,255,255); fill-rule: nonzero; opacity: 1;" vector-effect="non-scaling-stroke"  transform=" translate(-524.15, -77.84)" d="M 520.8 87.922 C 524.7219 89.0431 529.1984 85.6837 530.8779999999999 80.0822 C 531.9990999999999 77.2814 531.9990999999999 75.0431 531.4365899999999 72.801 C 530.8779999999999 70.5627 529.7568899999999 68.3205 527.5146899999999 67.7619 C 523.5927899999998 66.6408 519.1162899999998 70.00019999999999 517.4366899999999 75.6017 C 515.7569899999999 80.0822 516.3155899999999 84.56259999999999 519.1163899999999 86.80069999999999 C 519.1202959999999 86.80069999999999 519.6788899999999 87.35928999999999 520.7999899999999 87.92179999999999 z" stroke-linecap="round" />
</g>
<g transform="matrix(2.04 0 0 2.04 816.12 420.58)"  >
<path style="stroke: none; stroke-width: 1; stroke-dasharray: none; stroke-linecap: butt; stroke-dashoffset: 0; stroke-linejoin: miter; stroke-miterlimit: 4; fill: rgb(255,255,255); fill-rule: nonzero; opacity: 1;" vector-effect="non-scaling-stroke"  transform=" translate(-561.24, -88.92)" d="M 556.64 81.762 C 553.8392 84.0003 551.6009 86.8011 549.9212 89.6018 C 548.8001 92.40259999999999 548.8001 95.2034 549.9212 97.4416 C 549.9212 98.00018999999999 550.47979 98.00018999999999 550.47979 98.00018999999999 C 552.15949 99.12128999999999 554.40169 100.23848999999998 557.19859 99.67988999999999 C 559.99939 99.12129999999999 563.35879 98.00018999999999 566.15949 95.75798999999999 C 572.31969 91.27748999999999 575.12039 84.55899 572.31969 80.63699 C 570.07749 76.71898999999999 562.80019 77.28148999999999 556.6396900000001 81.76199 z" stroke-linecap="round" />
</g>
<g transform="matrix(2.04 0 0 2.04 783.51 388.69)"  >
<path style="stroke: none; stroke-width: 1; stroke-dasharray: none; stroke-linecap: butt; stroke-dashoffset: 0; stroke-linejoin: miter; stroke-miterlimit: 4; fill: rgb(255,255,255); fill-rule: nonzero; opacity: 1;" vector-effect="non-scaling-stroke"  transform=" translate(-545.23, -73.26)" d="M 537.6 85.121 C 539.8383 86.2421 542.6391 86.2421 545.4398 84.56241 C 548.2406 82.88271 550.4789 80.64051 552.721 77.84361 C 556.6429 71.12481 556.6429 63.84361 552.721 61.60561 C 548.7991 58.804809999999996 542.08 62.1642 538.162 68.88681 C 535.9198 72.23841 534.7987 75.60161 534.7987 78.39851 C 534.7987 81.19931 535.35729 83.43761 537.037 84.55871 C 537.037 85.12121 537.5995 85.12121 537.5995 85.12121 z" stroke-linecap="round" />
</g>
<g transform="matrix(2.04 0 0 2.04 747.99 462.14)"  >
<path style="stroke: none; stroke-width: 1; stroke-dasharray: none; stroke-linecap: butt; stroke-dashoffset: 0; stroke-linejoin: miter; stroke-miterlimit: 4; fill: rgb(255,255,255); fill-rule: nonzero; opacity: 1;" vector-effect="non-scaling-stroke"  transform=" translate(-527.77, -108.79)" d="M 543.76 91.84 C 543.76 91.84 543.1975 91.84 543.76 91.84 C 542.6389 91.28141000000001 542.0803 90.7189 541.5217 90.1603 C 538.7209 88.48060000000001 534.2405 88.48060000000001 533.1233 88.48060000000001 L 521.9243 90.1603 C 516.3227 90.71889 512.4048 92.3986 510.1623 95.76190000000001 C 506.2404 101.36350000000002 508.4826 108.64090000000002 508.4826 109.20290000000001 C 509.6037 112.00370000000001 510.7209 114.24200000000002 512.4045 115.92170000000002 C 514.6428 118.16000000000001 517.4436 118.72250000000001 518.5647 119.28110000000001 C 519.12329 121.5194 521.9241000000001 127.1209 529.2057 128.8006 C 529.76429 128.8006 537.0455 130.4803 542.6467 125.99980000000001 C 546.0061000000001 123.19900000000001 547.1272 119.281 547.1272 114.23780000000001 L 547.68579 102.4758 C 547.68579 101.91721000000001 547.1272 96.8742 545.44749 94.63600000000001 C 544.8771800000001 92.96020000000001 544.31859 92.39770000000001 543.75999 91.83910000000002 z" stroke-linecap="round" />
</g>
<g transform="matrix(0 0 0 0 0 0)"  >
<g style=""   >
</g>
</g>
<g transform="matrix(0 0 0 0 0 0)"  >
<g style=""   >
</g>
</g>
<g transform="matrix(2.04 0 0 2.04 536.88 443.25)"  >
<path style="stroke: none; stroke-width: 1; stroke-dasharray: none; stroke-linecap: butt; stroke-dashoffset: 0; stroke-linejoin: miter; stroke-miterlimit: 4; fill: rgb(255,255,255); fill-rule: nonzero; opacity: 1;" vector-effect="non-scaling-stroke"  transform=" translate(-559.44, -109.97)" d="M 563.92 102.48 C 561.6817 101.92141000000001 558.8809 102.48 556.6388 103.6011 C 551.0372 105.8394 548.2403999999999 110.8823 549.92 114.24210000000001 C 550.4785899999999 114.80069 550.4785899999999 115.3632 551.0410999999999 115.9218 C 553.2793999999999 118.1601 557.7598999999999 118.1601 562.2400999999999 116.48039 C 567.8416999999998 114.24209 570.6384999999999 109.19919 568.9588999999999 105.83939 C 568.3963999999999 103.60109 566.7166999999998 102.47999 563.9197999999999 102.47999 z" stroke-linecap="round" />
</g>
<g transform="matrix(2.04 0 0 2.04 465.02 377.84)"  >
<path style="stroke: none; stroke-width: 1; stroke-dasharray: none; stroke-linecap: butt; stroke-dashoffset: 0; stroke-linejoin: miter; stroke-miterlimit: 4; fill: rgb(255,255,255); fill-rule: nonzero; opacity: 1;" vector-effect="non-scaling-stroke"  transform=" translate(-524.15, -77.84)" d="M 520.8 87.922 C 524.7219 89.0431 529.1984 85.6837 530.8779999999999 80.0822 C 531.9990999999999 77.2814 531.9990999999999 75.0431 531.4365899999999 72.801 C 530.8779999999999 70.5627 529.7568899999999 68.3205 527.5146899999999 67.7619 C 523.5927899999998 66.6408 519.1162899999998 70.00019999999999 517.4366899999999 75.6017 C 515.7569899999999 80.0822 516.3155899999999 84.56259999999999 519.1163899999999 86.80069999999999 C 519.1202959999999 86.80069999999999 519.6788899999999 87.35928999999999 520.7999899999999 87.92179999999999 z" stroke-linecap="round" />
</g>
<g transform="matrix(2.04 0 0 2.04 540.56 400.41)"  >
<path style="stroke: none; stroke-width: 1; stroke-dasharray: none; stroke-linecap: butt; stroke-dashoffset: 0; stroke-linejoin: miter; stroke-miterlimit: 4; fill: rgb(255,255,255); fill-rule: nonzero; opacity: 1;" vector-effect="non-scaling-stroke"  transform=" translate(-561.24, -88.92)" d="M 556.64 81.762 C 553.8392 84.0003 551.6009 86.8011 549.9212 89.6018 C 548.8001 92.40259999999999 548.8001 95.2034 549.9212 97.4416 C 549.9212 98.00018999999999 550.47979 98.00018999999999 550.47979 98.00018999999999 C 552.15949 99.12128999999999 554.40169 100.23848999999998 557.19859 99.67988999999999 C 559.99939 99.12129999999999 563.35879 98.00018999999999 566.15949 95.75798999999999 C 572.31969 91.27748999999999 575.12039 84.55899 572.31969 80.63699 C 570.07749 76.71898999999999 562.80019 77.28148999999999 556.6396900000001 81.76199 z" stroke-linecap="round" />
</g>
<g transform="matrix(2.04 0 0 2.04 507.95 368.52)"  >
<path style="stroke: none; stroke-width: 1; stroke-dasharray: none; stroke-linecap: butt; stroke-dashoffset: 0; stroke-linejoin: miter; stroke-miterlimit: 4; fill: rgb(255,255,255); fill-rule: nonzero; opacity: 1;" vector-effect="non-scaling-stroke"  transform=" translate(-545.23, -73.26)" d="M 537.6 85.121 C 539.8383 86.2421 542.6391 86.2421 545.4398 84.56241 C 548.2406 82.88271 550.4789 80.64051 552.721 77.84361 C 556.6429 71.12481 556.6429 63.84361 552.721 61.60561 C 548.7991 58.804809999999996 542.08 62.1642 538.162 68.88681 C 535.9198 72.23841 534.7987 75.60161 534.7987 78.39851 C 534.7987 81.19931 535.35729 83.43761 537.037 84.55871 C 537.037 85.12121 537.5995 85.12121 537.5995 85.12121 z" stroke-linecap="round" />
</g>
<g transform="matrix(2.04 0 0 2.04 472.43 441.97)"  >
<path style="stroke: none; stroke-width: 1; stroke-dasharray: none; stroke-linecap: butt; stroke-dashoffset: 0; stroke-linejoin: miter; stroke-miterlimit: 4; fill: rgb(255,255,255); fill-rule: nonzero; opacity: 1;" vector-effect="non-scaling-stroke"  transform=" translate(-527.77, -108.79)" d="M 543.76 91.84 C 543.76 91.84 543.1975 91.84 543.76 91.84 C 542.6389 91.28141000000001 542.0803 90.7189 541.5217 90.1603 C 538.7209 88.48060000000001 534.2405 88.48060000000001 533.1233 88.48060000000001 L 521.9243 90.1603 C 516.3227 90.71889 512.4048 92.3986 510.1623 95.76190000000001 C 506.2404 101.36350000000002 508.4826 108.64090000000002 508.4826 109.20290000000001 C 509.6037 112.00370000000001 510.7209 114.24200000000002 512.4045 115.92170000000002 C 514.6428 118.16000000000001 517.4436 118.72250000000001 518.5647 119.28110000000001 C 519.12329 121.5194 521.9241000000001 127.1209 529.2057 128.8006 C 529.76429 128.8006 537.0455 130.4803 542.6467 125.99980000000001 C 546.0061000000001 123.19900000000001 547.1272 119.281 547.1272 114.23780000000001 L 547.68579 102.4758 C 547.68579 101.91721000000001 547.1272 96.8742 545.44749 94.63600000000001 C 544.8771800000001 92.96020000000001 544.31859 92.39770000000001 543.75999 91.83910000000002 z" stroke-linecap="round" />
</g>
<g transform="matrix(0 0 0 0 0 0)"  >
<g style=""   >
</g>
</g>
<g transform="matrix(0 0 0 0 0 0)"  >
<g style=""   >
</g>
</g>
<g transform="matrix(2.04 0 0 2.04 619.86 685.7)"  >
<path style="stroke: none; stroke-width: 1; stroke-dasharray: none; stroke-linecap: butt; stroke-dashoffset: 0; stroke-linejoin: miter; stroke-miterlimit: 4; fill: rgb(255,255,255); fill-rule: nonzero; opacity: 1;" vector-effect="non-scaling-stroke"  transform=" translate(-559.44, -109.97)" d="M 563.92 102.48 C 561.6817 101.92141000000001 558.8809 102.48 556.6388 103.6011 C 551.0372 105.8394 548.2403999999999 110.8823 549.92 114.24210000000001 C 550.4785899999999 114.80069 550.4785899999999 115.3632 551.0410999999999 115.9218 C 553.2793999999999 118.1601 557.7598999999999 118.1601 562.2400999999999 116.48039 C 567.8416999999998 114.24209 570.6384999999999 109.19919 568.9588999999999 105.83939 C 568.3963999999999 103.60109 566.7166999999998 102.47999 563.9197999999999 102.47999 z" stroke-linecap="round" />
</g>
<g transform="matrix(2.04 0 0 2.04 548 620.29)"  >
<path style="stroke: none; stroke-width: 1; stroke-dasharray: none; stroke-linecap: butt; stroke-dashoffset: 0; stroke-linejoin: miter; stroke-miterlimit: 4; fill: rgb(255,255,255); fill-rule: nonzero; opacity: 1;" vector-effect="non-scaling-stroke"  transform=" translate(-524.15, -77.84)" d="M 520.8 87.922 C 524.7219 89.0431 529.1984 85.6837 530.8779999999999 80.0822 C 531.9990999999999 77.2814 531.9990999999999 75.0431 531.4365899999999 72.801 C 530.8779999999999 70.5627 529.7568899999999 68.3205 527.5146899999999 67.7619 C 523.5927899999998 66.6408 519.1162899999998 70.00019999999999 517.4366899999999 75.6017 C 515.7569899999999 80.0822 516.3155899999999 84.56259999999999 519.1163899999999 86.80069999999999 C 519.1202959999999 86.80069999999999 519.6788899999999 87.35928999999999 520.7999899999999 87.92179999999999 z" stroke-linecap="round" />
</g>
<g transform="matrix(2.04 0 0 2.04 623.54 642.86)"  >
<path style="stroke: none; stroke-width: 1; stroke-dasharray: none; stroke-linecap: butt; stroke-dashoffset: 0; stroke-linejoin: miter; stroke-miterlimit: 4; fill: rgb(255,255,255); fill-rule: nonzero; opacity: 1;" vector-effect="non-scaling-stroke"  transform=" translate(-561.24, -88.92)" d="M 556.64 81.762 C 553.8392 84.0003 551.6009 86.8011 549.9212 89.6018 C 548.8001 92.40259999999999 548.8001 95.2034 549.9212 97.4416 C 549.9212 98.00018999999999 550.47979 98.00018999999999 550.47979 98.00018999999999 C 552.15949 99.12128999999999 554.40169 100.23848999999998 557.19859 99.67988999999999 C 559.99939 99.12129999999999 563.35879 98.00018999999999 566.15949 95.75798999999999 C 572.31969 91.27748999999999 575.12039 84.55899 572.31969 80.63699 C 570.07749 76.71898999999999 562.80019 77.28148999999999 556.6396900000001 81.76199 z" stroke-linecap="round" />
</g>
<g transform="matrix(2.04 0 0 2.04 590.93 610.97)"  >
<path style="stroke: none; stroke-width: 1; stroke-dasharray: none; stroke-linecap: butt; stroke-dashoffset: 0; stroke-linejoin: miter; stroke-miterlimit: 4; fill: rgb(255,255,255); fill-rule: nonzero; opacity: 1;" vector-effect="non-scaling-stroke"  transform=" translate(-545.23, -73.26)" d="M 537.6 85.121 C 539.8383 86.2421 542.6391 86.2421 545.4398 84.56241 C 548.2406 82.88271 550.4789 80.64051 552.721 77.84361 C 556.6429 71.12481 556.6429 63.84361 552.721 61.60561 C 548.7991 58.804809999999996 542.08 62.1642 538.162 68.88681 C 535.9198 72.23841 534.7987 75.60161 534.7987 78.39851 C 534.7987 81.19931 535.35729 83.43761 537.037 84.55871 C 537.037 85.12121 537.5995 85.12121 537.5995 85.12121 z" stroke-linecap="round" />
</g>
<g transform="matrix(2.04 0 0 2.04 555.41 684.42)"  >
<path style="stroke: none; stroke-width: 1; stroke-dasharray: none; stroke-linecap: butt; stroke-dashoffset: 0; stroke-linejoin: miter; stroke-miterlimit: 4; fill: rgb(255,255,255); fill-rule: nonzero; opacity: 1;" vector-effect="non-scaling-stroke"  transform=" translate(-527.77, -108.79)" d="M 543.76 91.84 C 543.76 91.84 543.1975 91.84 543.76 91.84 C 542.6389 91.28141000000001 542.0803 90.7189 541.5217 90.1603 C 538.7209 88.48060000000001 534.2405 88.48060000000001 533.1233 88.48060000000001 L 521.9243 90.1603 C 516.3227 90.71889 512.4048 92.3986 510.1623 95.76190000000001 C 506.2404 101.36350000000002 508.4826 108.64090000000002 508.4826 109.20290000000001 C 509.6037 112.00370000000001 510.7209 114.24200000000002 512.4045 115.92170000000002 C 514.6428 118.16000000000001 517.4436 118.72250000000001 518.5647 119.28110000000001 C 519.12329 121.5194 521.9241000000001 127.1209 529.2057 128.8006 C 529.76429 128.8006 537.0455 130.4803 542.6467 125.99980000000001 C 546.0061000000001 123.19900000000001 547.1272 119.281 547.1272 114.23780000000001 L 547.68579 102.4758 C 547.68579 101.91721000000001 547.1272 96.8742 545.44749 94.63600000000001 C 544.8771800000001 92.96020000000001 544.31859 92.39770000000001 543.75999 91.83910000000002 z" stroke-linecap="round" />
</g>
<g transform="matrix(2.04 0 0 2.04 362.3 646.91)"  >
<path style="stroke: none; stroke-width: 1; stroke-dasharray: none; stroke-linecap: butt; stroke-dashoffset: 0; stroke-linejoin: miter; stroke-miterlimit: 4; fill: rgb(255,255,255); fill-rule: nonzero; opacity: 1;" vector-effect="non-scaling-stroke"  transform=" translate(-559.44, -109.97)" d="M 563.92 102.48 C 561.6817 101.92141000000001 558.8809 102.48 556.6388 103.6011 C 551.0372 105.8394 548.2403999999999 110.8823 549.92 114.24210000000001 C 550.4785899999999 114.80069 550.4785899999999 115.3632 551.0410999999999 115.9218 C 553.2793999999999 118.1601 557.7598999999999 118.1601 562.2400999999999 116.48039 C 567.8416999999998 114.24209 570.6384999999999 109.19919 568.9588999999999 105.83939 C 568.3963999999999 103.60109 566.7166999999998 102.47999 563.9197999999999 102.47999 z" stroke-linecap="round" />
</g>
<g transform="matrix(2.04 0 0 2.04 290.45 581.5)"  >
<path style="stroke: none; stroke-width: 1; stroke-dasharray: none; stroke-linecap: butt; stroke-dashoffset: 0; stroke-linejoin: miter; stroke-miterlimit: 4; fill: rgb(255,255,255); fill-rule: nonzero; opacity: 1;" vector-effect="non-scaling-stroke"  transform=" translate(-524.15, -77.84)" d="M 520.8 87.922 C 524.7219 89.0431 529.1984 85.6837 530.8779999999999 80.0822 C 531.9990999999999 77.2814 531.9990999999999 75.0431 531.4365899999999 72.801 C 530.8779999999999 70.5627 529.7568899999999 68.3205 527.5146899999999 67.7619 C 523.5927899999998 66.6408 519.1162899999998 70.00019999999999 517.4366899999999 75.6017 C 515.7569899999999 80.0822 516.3155899999999 84.56259999999999 519.1163899999999 86.80069999999999 C 519.1202959999999 86.80069999999999 519.6788899999999 87.35928999999999 520.7999899999999 87.92179999999999 z" stroke-linecap="round" />
</g>
<g transform="matrix(2.04 0 0 2.04 365.99 604.07)"  >
<path style="stroke: none; stroke-width: 1; stroke-dasharray: none; stroke-linecap: butt; stroke-dashoffset: 0; stroke-linejoin: miter; stroke-miterlimit: 4; fill: rgb(255,255,255); fill-rule: nonzero; opacity: 1;" vector-effect="non-scaling-stroke"  transform=" translate(-561.24, -88.92)" d="M 556.64 81.762 C 553.8392 84.0003 551.6009 86.8011 549.9212 89.6018 C 548.8001 92.40259999999999 548.8001 95.2034 549.9212 97.4416 C 549.9212 98.00018999999999 550.47979 98.00018999999999 550.47979 98.00018999999999 C 552.15949 99.12128999999999 554.40169 100.23848999999998 557.19859 99.67988999999999 C 559.99939 99.12129999999999 563.35879 98.00018999999999 566.15949 95.75798999999999 C 572.31969 91.27748999999999 575.12039 84.55899 572.31969 80.63699 C 570.07749 76.71898999999999 562.80019 77.28148999999999 556.6396900000001 81.76199 z" stroke-linecap="round" />
</g>
<g transform="matrix(2.04 0 0 2.04 333.38 572.19)"  >
<path style="stroke: none; stroke-width: 1; stroke-dasharray: none; stroke-linecap: butt; stroke-dashoffset: 0; stroke-linejoin: miter; stroke-miterlimit: 4; fill: rgb(255,255,255); fill-rule: nonzero; opacity: 1;" vector-effect="non-scaling-stroke"  transform=" translate(-545.23, -73.26)" d="M 537.6 85.121 C 539.8383 86.2421 542.6391 86.2421 545.4398 84.56241 C 548.2406 82.88271 550.4789 80.64051 552.721 77.84361 C 556.6429 71.12481 556.6429 63.84361 552.721 61.60561 C 548.7991 58.804809999999996 542.08 62.1642 538.162 68.88681 C 535.9198 72.23841 534.7987 75.60161 534.7987 78.39851 C 534.7987 81.19931 535.35729 83.43761 537.037 84.55871 C 537.037 85.12121 537.5995 85.12121 537.5995 85.12121 z" stroke-linecap="round" />
</g>
<g transform="matrix(2.04 0 0 2.04 297.85 645.63)"  >
<path style="stroke: none; stroke-width: 1; stroke-dasharray: none; stroke-linecap: butt; stroke-dashoffset: 0; stroke-linejoin: miter; stroke-miterlimit: 4; fill: rgb(255,255,255); fill-rule: nonzero; opacity: 1;" vector-effect="non-scaling-stroke"  transform=" translate(-527.77, -108.79)" d="M 543.76 91.84 C 543.76 91.84 543.1975 91.84 543.76 91.84 C 542.6389 91.28141000000001 542.0803 90.7189 541.5217 90.1603 C 538.7209 88.48060000000001 534.2405 88.48060000000001 533.1233 88.48060000000001 L 521.9243 90.1603 C 516.3227 90.71889 512.4048 92.3986 510.1623 95.76190000000001 C 506.2404 101.36350000000002 508.4826 108.64090000000002 508.4826 109.20290000000001 C 509.6037 112.00370000000001 510.7209 114.24200000000002 512.4045 115.92170000000002 C 514.6428 118.16000000000001 517.4436 118.72250000000001 518.5647 119.28110000000001 C 519.12329 121.5194 521.9241000000001 127.1209 529.2057 128.8006 C 529.76429 128.8006 537.0455 130.4803 542.6467 125.99980000000001 C 546.0061000000001 123.19900000000001 547.1272 119.281 547.1272 114.23780000000001 L 547.68579 102.4758 C 547.68579 101.91721000000001 547.1272 96.8742 545.44749 94.63600000000001 C 544.8771800000001 92.96020000000001 544.31859 92.39770000000001 543.75999 91.83910000000002 z" stroke-linecap="round" />
</g>
<g transform="matrix(2.04 0 0 2.04 459.29 897.99)"  >
<path style="stroke: none; stroke-width: 1; stroke-dasharray: none; stroke-linecap: butt; stroke-dashoffset: 0; stroke-linejoin: miter; stroke-miterlimit: 4; fill: rgb(255,255,255); fill-rule: nonzero; opacity: 1;" vector-effect="non-scaling-stroke"  transform=" translate(-559.44, -109.97)" d="M 563.92 102.48 C 561.6817 101.92141000000001 558.8809 102.48 556.6388 103.6011 C 551.0372 105.8394 548.2403999999999 110.8823 549.92 114.24210000000001 C 550.4785899999999 114.80069 550.4785899999999 115.3632 551.0410999999999 115.9218 C 553.2793999999999 118.1601 557.7598999999999 118.1601 562.2400999999999 116.48039 C 567.8416999999998 114.24209 570.6384999999999 109.19919 568.9588999999999 105.83939 C 568.3963999999999 103.60109 566.7166999999998 102.47999 563.9197999999999 102.47999 z" stroke-linecap="round" />
</g>
<g transform="matrix(2.04 0 0 2.04 387.44 832.59)"  >
<path style="stroke: none; stroke-width: 1; stroke-dasharray: none; stroke-linecap: butt; stroke-dashoffset: 0; stroke-linejoin: miter; stroke-miterlimit: 4; fill: rgb(255,255,255); fill-rule: nonzero; opacity: 1;" vector-effect="non-scaling-stroke"  transform=" translate(-524.15, -77.84)" d="M 520.8 87.922 C 524.7219 89.0431 529.1984 85.6837 530.8779999999999 80.0822 C 531.9990999999999 77.2814 531.9990999999999 75.0431 531.4365899999999 72.801 C 530.8779999999999 70.5627 529.7568899999999 68.3205 527.5146899999999 67.7619 C 523.5927899999998 66.6408 519.1162899999998 70.00019999999999 517.4366899999999 75.6017 C 515.7569899999999 80.0822 516.3155899999999 84.56259999999999 519.1163899999999 86.80069999999999 C 519.1202959999999 86.80069999999999 519.6788899999999 87.35928999999999 520.7999899999999 87.92179999999999 z" stroke-linecap="round" />
</g>
<g transform="matrix(2.04 0 0 2.04 462.98 855.15)"  >
<path style="stroke: none; stroke-width: 1; stroke-dasharray: none; stroke-linecap: butt; stroke-dashoffset: 0; stroke-linejoin: miter; stroke-miterlimit: 4; fill: rgb(255,255,255); fill-rule: nonzero; opacity: 1;" vector-effect="non-scaling-stroke"  transform=" translate(-561.24, -88.92)" d="M 556.64 81.762 C 553.8392 84.0003 551.6009 86.8011 549.9212 89.6018 C 548.8001 92.40259999999999 548.8001 95.2034 549.9212 97.4416 C 549.9212 98.00018999999999 550.47979 98.00018999999999 550.47979 98.00018999999999 C 552.15949 99.12128999999999 554.40169 100.23848999999998 557.19859 99.67988999999999 C 559.99939 99.12129999999999 563.35879 98.00018999999999 566.15949 95.75798999999999 C 572.31969 91.27748999999999 575.12039 84.55899 572.31969 80.63699 C 570.07749 76.71898999999999 562.80019 77.28148999999999 556.6396900000001 81.76199 z" stroke-linecap="round" />
</g>
<g transform="matrix(2.04 0 0 2.04 430.37 823.27)"  >
<path style="stroke: none; stroke-width: 1; stroke-dasharray: none; stroke-linecap: butt; stroke-dashoffset: 0; stroke-linejoin: miter; stroke-miterlimit: 4; fill: rgb(255,255,255); fill-rule: nonzero; opacity: 1;" vector-effect="non-scaling-stroke"  transform=" translate(-545.23, -73.26)" d="M 537.6 85.121 C 539.8383 86.2421 542.6391 86.2421 545.4398 84.56241 C 548.2406 82.88271 550.4789 80.64051 552.721 77.84361 C 556.6429 71.12481 556.6429 63.84361 552.721 61.60561 C 548.7991 58.804809999999996 542.08 62.1642 538.162 68.88681 C 535.9198 72.23841 534.7987 75.60161 534.7987 78.39851 C 534.7987 81.19931 535.35729 83.43761 537.037 84.55871 C 537.037 85.12121 537.5995 85.12121 537.5995 85.12121 z" stroke-linecap="round" />
</g>
<g transform="matrix(2.04 0 0 2.04 394.84 896.72)"  >
<path style="stroke: none; stroke-width: 1; stroke-dasharray: none; stroke-linecap: butt; stroke-dashoffset: 0; stroke-linejoin: miter; stroke-miterlimit: 4; fill: rgb(255,255,255); fill-rule: nonzero; opacity: 1;" vector-effect="non-scaling-stroke"  transform=" translate(-527.77, -108.79)" d="M 543.76 91.84 C 543.76 91.84 543.1975 91.84 543.76 91.84 C 542.6389 91.28141000000001 542.0803 90.7189 541.5217 90.1603 C 538.7209 88.48060000000001 534.2405 88.48060000000001 533.1233 88.48060000000001 L 521.9243 90.1603 C 516.3227 90.71889 512.4048 92.3986 510.1623 95.76190000000001 C 506.2404 101.36350000000002 508.4826 108.64090000000002 508.4826 109.20290000000001 C 509.6037 112.00370000000001 510.7209 114.24200000000002 512.4045 115.92170000000002 C 514.6428 118.16000000000001 517.4436 118.72250000000001 518.5647 119.28110000000001 C 519.12329 121.5194 521.9241000000001 127.1209 529.2057 128.8006 C 529.76429 128.8006 537.0455 130.4803 542.6467 125.99980000000001 C 546.0061000000001 123.19900000000001 547.1272 119.281 547.1272 114.23780000000001 L 547.68579 102.4758 C 547.68579 101.91721000000001 547.1272 96.8742 545.44749 94.63600000000001 C 544.8771800000001 92.96020000000001 544.31859 92.39770000000001 543.75999 91.83910000000002 z" stroke-linecap="round" />
</g>
<g transform="matrix(2.04 0 0 2.04 204.97 876.44)"  >
<path style="stroke: none; stroke-width: 1; stroke-dasharray: none; stroke-linecap: butt; stroke-dashoffset: 0; stroke-linejoin: miter; stroke-miterlimit: 4; fill: rgb(255,255,255); fill-rule: nonzero; opacity: 1;" vector-effect="non-scaling-stroke"  transform=" translate(-559.44, -109.97)" d="M 563.92 102.48 C 561.6817 101.92141000000001 558.8809 102.48 556.6388 103.6011 C 551.0372 105.8394 548.2403999999999 110.8823 549.92 114.24210000000001 C 550.4785899999999 114.80069 550.4785899999999 115.3632 551.0410999999999 115.9218 C 553.2793999999999 118.1601 557.7598999999999 118.1601 562.2400999999999 116.48039 C 567.8416999999998 114.24209 570.6384999999999 109.19919 568.9588999999999 105.83939 C 568.3963999999999 103.60109 566.7166999999998 102.47999 563.9197999999999 102.47999 z" stroke-linecap="round" />
</g>
<g transform="matrix(2.04 0 0 2.04 133.12 811.04)"  >
<path style="stroke: none; stroke-width: 1; stroke-dasharray: none; stroke-linecap: butt; stroke-dashoffset: 0; stroke-linejoin: miter; stroke-miterlimit: 4; fill: rgb(255,255,255); fill-rule: nonzero; opacity: 1;" vector-effect="non-scaling-stroke"  transform=" translate(-524.15, -77.84)" d="M 520.8 87.922 C 524.7219 89.0431 529.1984 85.6837 530.8779999999999 80.0822 C 531.9990999999999 77.2814 531.9990999999999 75.0431 531.4365899999999 72.801 C 530.8779999999999 70.5627 529.7568899999999 68.3205 527.5146899999999 67.7619 C 523.5927899999998 66.6408 519.1162899999998 70.00019999999999 517.4366899999999 75.6017 C 515.7569899999999 80.0822 516.3155899999999 84.56259999999999 519.1163899999999 86.80069999999999 C 519.1202959999999 86.80069999999999 519.6788899999999 87.35928999999999 520.7999899999999 87.92179999999999 z" stroke-linecap="round" />
</g>
<g transform="matrix(2.04 0 0 2.04 208.66 833.6)"  >
<path style="stroke: none; stroke-width: 1; stroke-dasharray: none; stroke-linecap: butt; stroke-dashoffset: 0; stroke-linejoin: miter; stroke-miterlimit: 4; fill: rgb(255,255,255); fill-rule: nonzero; opacity: 1;" vector-effect="non-scaling-stroke"  transform=" translate(-561.24, -88.92)" d="M 556.64 81.762 C 553.8392 84.0003 551.6009 86.8011 549.9212 89.6018 C 548.8001 92.40259999999999 548.8001 95.2034 549.9212 97.4416 C 549.9212 98.00018999999999 550.47979 98.00018999999999 550.47979 98.00018999999999 C 552.15949 99.12128999999999 554.40169 100.23848999999998 557.19859 99.67988999999999 C 559.99939 99.12129999999999 563.35879 98.00018999999999 566.15949 95.75798999999999 C 572.31969 91.27748999999999 575.12039 84.55899 572.31969 80.63699 C 570.07749 76.71898999999999 562.80019 77.28148999999999 556.6396900000001 81.76199 z" stroke-linecap="round" />
</g>
<g transform="matrix(2.04 0 0 2.04 176.05 801.72)"  >
<path style="stroke: none; stroke-width: 1; stroke-dasharray: none; stroke-linecap: butt; stroke-dashoffset: 0; stroke-linejoin: miter; stroke-miterlimit: 4; fill: rgb(255,255,255); fill-rule: nonzero; opacity: 1;" vector-effect="non-scaling-stroke"  transform=" translate(-545.23, -73.26)" d="M 537.6 85.121 C 539.8383 86.2421 542.6391 86.2421 545.4398 84.56241 C 548.2406 82.88271 550.4789 80.64051 552.721 77.84361 C 556.6429 71.12481 556.6429 63.84361 552.721 61.60561 C 548.7991 58.804809999999996 542.08 62.1642 538.162 68.88681 C 535.9198 72.23841 534.7987 75.60161 534.7987 78.39851 C 534.7987 81.19931 535.35729 83.43761 537.037 84.55871 C 537.037 85.12121 537.5995 85.12121 537.5995 85.12121 z" stroke-linecap="round" />
</g>
<g transform="matrix(2.04 0 0 2.04 140.53 875.16)"  >
<path style="stroke: none; stroke-width: 1; stroke-dasharray: none; stroke-linecap: butt; stroke-dashoffset: 0; stroke-linejoin: miter; stroke-miterlimit: 4; fill: rgb(255,255,255); fill-rule: nonzero; opacity: 1;" vector-effect="non-scaling-stroke"  transform=" translate(-527.77, -108.79)" d="M 543.76 91.84 C 543.76 91.84 543.1975 91.84 543.76 91.84 C 542.6389 91.28141000000001 542.0803 90.7189 541.5217 90.1603 C 538.7209 88.48060000000001 534.2405 88.48060000000001 533.1233 88.48060000000001 L 521.9243 90.1603 C 516.3227 90.71889 512.4048 92.3986 510.1623 95.76190000000001 C 506.2404 101.36350000000002 508.4826 108.64090000000002 508.4826 109.20290000000001 C 509.6037 112.00370000000001 510.7209 114.24200000000002 512.4045 115.92170000000002 C 514.6428 118.16000000000001 517.4436 118.72250000000001 518.5647 119.28110000000001 C 519.12329 121.5194 521.9241000000001 127.1209 529.2057 128.8006 C 529.76429 128.8006 537.0455 130.4803 542.6467 125.99980000000001 C 546.0061000000001 123.19900000000001 547.1272 119.281 547.1272 114.23780000000001 L 547.68579 102.4758 C 547.68579 101.91721000000001 547.1272 96.8742 545.44749 94.63600000000001 C 544.8771800000001 92.96020000000001 544.31859 92.39770000000001 543.75999 91.83910000000002 z" stroke-linecap="round" />
</g>
</svg>