<?xml version="1.0" encoding="UTF-8" standalone="no" ?>
<!DOCTYPE svg PUBLIC "-//W3C//DTD SVG 1.1//EN" "http://www.w3.org/Graphics/SVG/1.1/DTD/svg11.dtd">
<svg xmlns="http://www.w3.org/2000/svg" xmlns:xlink="http://www.w3.org/1999/xlink" version="1.1" width="1080" height="1080" viewBox="0 0 1080 1080" xml:space="preserve">
<desc>Created with Fabric.js 5.2.4</desc>
<defs>
</defs>
<g transform="matrix(1 0 0 1 540 540)" id="1409326a-f084-407f-a4fd-c0bc6e314010"  >
<rect style="stroke: none; stroke-width: 1; stroke-dasharray: none; stroke-linecap: butt; stroke-dashoffset: 0; stroke-linejoin: miter; stroke-miterlimit: 4; fill: rgb(255,255,255); fill-rule: nonzero; opacity: 1; visibility: hidden;" vector-effect="non-scaling-stroke"  x="-540" y="-540" rx="0" ry="0" width="1080" height="1080" />
</g>
<g transform="matrix(1 0 0 1 540 540)" id="877db9f6-2a53-4e51-8fa1-8f05c275f8db"  >
</g>
<g transform="matrix(2.52 0 0 2.52 540 540)"  >
<path style="stroke: none; stroke-width: 1; stroke-dasharray: none; stroke-linecap: butt; stroke-dashoffset: 0; stroke-linejoin: miter; stroke-miterlimit: 4; fill: rgb(0,0,0); fill-rule: nonzero; opacity: 1;" vector-effect="non-scaling-stroke"  transform=" translate(-349.84, -279.88)" d="M 511 243.51 C 502.293 204.881 479.996 170.666 448.18 147.096 C 416.36 123.52600000000001 377.13300000000004 112.17 337.64 115.096 C 298.152 118.0179 261.027 135.03 233.02999999999997 163.03 C 205.03299999999996 191.03 188.01799999999997 228.155 185.09599999999998 267.64 C 182.17019999999997 307.128 193.52569999999997 346.355 217.09599999999998 378.18 C 240.66599999999997 409.996 274.881 432.293 313.51 441 C 325.627 443.7383 338.014 445.1172 350.436 445.1133 C 383.498 445.046894 415.784 435.0433 443.092 416.4063 C 470.401 397.76529999999997 491.479 371.3473 503.58799999999997 340.5783 C 515.693 309.8123 518.279 276.1173 510.99819999999994 243.8633 z M 251.74 181.737 C 277.75600000000003 155.62 313.13800000000003 141.003 350.002 141.135 C 354.9981 141.135 359.99420000000003 141.39672 364.963 141.92406 L 363.2989 145.77566 L 356.1231 159.07665999999998 L 356.127006 159.07275399999997 C 343.014006 186.70175399999997 325.881006 212.23675399999996 305.291006 234.84975399999996 C 282.709006 255.43975399999997 257.201006 272.56875399999996 229.603006 285.685754 L 216.216006 292.86155399999996 L 212.364406 294.525654 L 212.364406 294.521748 C 207.716006 252.904748 222.196406 211.419748 251.739406 181.73174799999998 z M 312.99 403.027 L 308.615 412.652 L 308.615 412.648094 C 264.834 399.117094 230.63100000000003 364.722094 217.353 320.86309400000005 L 226.8921 316.74979400000007 L 227.9429 316.2263540000001 L 241.5909 308.87475400000005 L 241.586994 308.87475400000005 C 271.590994 294.72975400000007 299.285994 276.1477540000001 323.750994 253.74975400000005 C 346.148994 229.25375400000004 364.730994 201.52675400000004 378.875994 171.49975400000005 C 381.325194 166.86305400000006 383.774394 162.31225400000005 386.137694 157.93775400000004 L 386.661134 156.88695400000003 L 390.774434 147.34785400000004 L 390.774434 147.35176000000004 C 434.77043399999997 160.69176000000004 469.227434 195.07876000000005 482.649434 239.05076000000003 L 473.024434 243.33986000000002 L 472.063494 243.77736000000002 L 458.41549399999997 251.12896 L 458.41549399999997 251.125054 C 428.407494 265.258054 400.708494 283.844054 376.251494 306.250054 C 353.774494 330.60905399999996 335.10349399999996 358.21905399999997 320.864494 388.148054 C 318.32539399999996 392.874654 315.876194 397.421454 313.51289399999996 401.796054 z M 447.92 378.265 L 447.92 378.261094 C 418.28700000000003 407.976094 376.76 422.624094 335.04 418.073094 L 336.70410000000004 414.311394 L 343.96580000000006 400.83439400000003 L 343.9618940000001 400.83439400000003 C 357.0478940000001 373.236394 374.1498940000001 347.73239400000006 394.7118940000001 325.14639400000004 C 417.2978940000001 304.58439400000003 442.80189400000006 287.48239400000006 470.3998940000001 274.39639400000004 L 483.87689400000005 267.134694 L 487.63859400000007 265.470594 L 487.63859400000007 265.4745 C 492.29879400000004 307.09549999999996 477.81439400000005 348.58349999999996 448.26359400000007 378.2645 z" stroke-linecap="round" />
</g>
</svg>