<?xml version="1.0" encoding="UTF-8" standalone="no" ?>
<!DOCTYPE svg PUBLIC "-//W3C//DTD SVG 1.1//EN" "http://www.w3.org/Graphics/SVG/1.1/DTD/svg11.dtd">
<svg xmlns="http://www.w3.org/2000/svg" xmlns:xlink="http://www.w3.org/1999/xlink" version="1.1" width="1080" height="1080" viewBox="0 0 1080 1080" xml:space="preserve">
<desc>Created with Fabric.js 5.2.4</desc>
<defs>
</defs>
<g transform="matrix(1 0 0 1 540 540)" id="42b92e94-a16e-43c8-8536-4ee599bae1bf"  >
<rect style="stroke: none; stroke-width: 1; stroke-dasharray: none; stroke-linecap: butt; stroke-dashoffset: 0; stroke-linejoin: miter; stroke-miterlimit: 4; fill: rgb(255,255,255); fill-rule: nonzero; opacity: 1; visibility: hidden;" vector-effect="non-scaling-stroke"  x="-540" y="-540" rx="0" ry="0" width="1080" height="1080" />
</g>
<g transform="matrix(1 0 0 1 540 540)" id="814f45ae-543e-4254-b299-2f209c5ef5a9"  >
</g>
<g transform="matrix(2.09 0 0 2.09 559.02 287.58)"  >
<path style="stroke: none; stroke-width: 1; stroke-dasharray: none; stroke-linecap: butt; stroke-dashoffset: 0; stroke-linejoin: miter; stroke-miterlimit: 4; fill: rgb(255,255,255); fill-rule: nonzero; opacity: 1;" vector-effect="non-scaling-stroke"  transform=" translate(-359.52, -159.04)" d="M 479.92 159.04 C 479.92 228.938 426.014 285.6 359.52 285.6 C 293.024 285.6 239.11999999999998 228.93600000000004 239.11999999999998 159.04000000000002 C 239.11999999999998 89.14500000000002 293.022 32.48000000000002 359.52 32.48000000000002 C 426.01599999999996 32.48000000000002 479.91999999999996 89.14400000000002 479.91999999999996 159.04000000000002" stroke-linecap="round" />
</g>
<g transform="matrix(2.09 0 0 2.09 264.14 775.07)"  >
<path style="stroke: none; stroke-width: 1; stroke-dasharray: none; stroke-linecap: butt; stroke-dashoffset: 0; stroke-linejoin: miter; stroke-miterlimit: 4; fill: rgb(255,255,255); fill-rule: nonzero; opacity: 1;" vector-effect="non-scaling-stroke"  transform=" translate(-208.18, -400.96)" d="M 281.68 418.32 C 309.121 416.64029999999997 318.641 362.32 318.641 362.32 L 271.60200000000003 347.76099999999997 L 254.80100000000004 325.36299999999994 C 253.12130000000005 324.80440999999996 251.44160000000005 324.24189999999993 249.76190000000005 324.24189999999993 C 248.08220000000006 323.68330999999995 246.96110000000004 323.68330999999995 245.84000000000006 323.1207999999999 C 244.71890000000005 322.56220999999994 243.03920000000005 322.56220999999994 241.91810000000007 321.9996999999999 L 239.67980000000006 321.4411099999999 L 224.55880000000005 275.51910999999996 L 208.87880000000004 314.71810999999997 L 181.99980000000005 310.23760999999996 L 156.80080000000004 274.95660999999996 L 129.92180000000005 394.79661 C 118.15980000000005 426.15560999999997 108.64080000000004 450.23761 100.80080000000005 469.27661 C 89.60180000000005 497.27661 110.32030000000006 526.95661 139.99980000000005 526.95661 L 232.39780000000005 526.95661 L 233.51890000000006 513.5156099999999 L 240.23770000000005 417.7536099999999 C 240.23770000000005 417.7536099999999 246.39790000000005 418.3121999999999 258.71770000000004 418.3121999999999 C 264.8779 418.8786099999999 272.71770000000004 418.8786099999999 281.67870000000005 418.3200119999999 z M 225.121 356.718 C 224.56241 359.5188 222.3202 361.75710000000004 219.51940000000002 362.31960000000004 L 217.83970000000002 362.31960000000004 C 213.35920000000002 362.31960000000004 209.99990000000003 358.39770000000004 210.5585 353.35870000000006 C 211.11709000000002 350.5579000000001 213.35930000000002 348.31960000000004 216.1601 347.75710000000004 L 217.8398 347.75710000000004 C 222.3203 348.31960000000004 226.2382 352.23760000000004 225.121 356.718 z" stroke-linecap="round" />
</g>
<g transform="matrix(2.09 0 0 2.09 702.38 808.23)"  >
<path style="stroke: none; stroke-width: 1; stroke-dasharray: none; stroke-linecap: butt; stroke-dashoffset: 0; stroke-linejoin: miter; stroke-miterlimit: 4; fill: rgb(255,255,255); fill-rule: nonzero; opacity: 1;" vector-effect="non-scaling-stroke"  transform=" translate(-427.08, -409.08)" d="M 602 443.52 C 592.4805 367.36 523.039 325.91999999999996 473.2 305.76 L 473.2 346.08 C 482.16089999999997 347.2011 490.001 351.1191 496.71999999999997 357.842 C 517.439 379.123 521.361 423.36199999999997 521.361 456.40099999999995 C 521.361 474.323 506.80199999999996 489.43999999999994 489.43899999999996 489.43999999999994 L 486.6382 489.43999999999994 C 484.95849999999996 491.11969999999997 482.7163 492.2407999999999 479.9194 492.2407999999999 C 474.8803 492.2407999999999 470.3999 488.3188999999999 470.3999 482.7212999999999 C 470.3999 477.6821999999999 474.3218 473.20179999999993 479.9194 473.20179999999993 C 482.7202 473.20179999999993 484.9585 474.32289999999995 486.6382 476.0025999999999 L 489.43899999999996 476.0025999999999 C 500.08 476.0025999999999 509.04099999999994 467.04169999999993 509.04099999999994 455.2835999999999 C 509.5995899999999 430.0845999999999 506.80269999999996 384.7245999999999 488.32199999999995 365.1235999999999 C 482.7203999999999 359.5219999999999 476.00199999999995 356.7251999999999 467.60299999999995 356.7251999999999 C 459.20459999999997 356.7251999999999 452.48199999999997 359.5259999999999 446.88399999999996 365.1235999999999 C 427.84499999999997 384.1625999999999 425.60299999999995 429.5215999999999 426.16499999999996 455.28359999999986 C 426.16499999999996 466.4825999999999 435.12589999999994 476.00259999999986 445.76699999999994 476.00259999999986 L 448.5677999999999 476.00259999999986 C 450.24749999999995 474.32289999999983 452.4896999999999 473.2017999999999 455.2865999999999 473.2017999999999 C 460.3256999999999 473.2017999999999 464.8060999999999 477.1236999999999 464.8060999999999 482.72129999999987 C 464.8060999999999 487.7603999999999 460.8841999999999 492.24079999999987 455.2865999999999 492.24079999999987 C 452.4857999999999 492.24079999999987 450.2474999999999 491.11969999999985 448.5677999999999 489.4399999999999 L 445.76699999999994 489.4399999999999 C 428.40799999999996 489.4399999999999 413.8449999999999 474.88099999999986 413.8449999999999 456.4009999999999 C 413.28640999999993 422.7989999999999 417.2043999999999 378.5609999999999 438.48599999999993 357.84199999999987 C 445.2047999999999 351.1231999999999 453.04499999999996 347.20099999999985 462.0059999999999 346.07999999999987 L 462.0059999999999 301.2789999999999 C 443.5259999999999 294.5601999999999 428.9669999999999 291.2009999999999 423.9279999999999 290.07999999999987 C 387.52999999999986 318.6389999999999 336.5689999999999 318.6389999999999 300.7279999999999 290.07999999999987 C 295.1263999999999 291.2010999999999 275.5289999999999 296.24019999999985 252.0089999999999 305.7599999999999 C 254.8097999999999 306.31858999999986 257.6105999999999 307.4396999999999 260.9698999999999 307.99829999999986 L 267.13009999999986 309.6779999999999 L 271.05199999999985 314.7170999999999 L 283.93099999999987 332.0760999999999 L 325.37199999999984 344.9550999999999 L 341.05199999999985 349.9941999999999 L 338.25119999999987 366.2321999999999 C 336.0128999999999 377.43119999999993 323.69219999999984 434.5521999999999 283.9311999999999 437.3531999999999 C 275.5327999999999 437.9117899999999 267.1301999999999 438.4742999999999 259.8531999999999 438.4742999999999 L 258.7320999999999 438.4742999999999 L 253.1304999999999 518.5523 C 283.3684999999999 524.1538999999999 319.2084999999999 528.0717999999999 361.7704999999999 528.0717999999999 L 361.7704999999999 527.51321 L 361.7704999999999 528.0717999999999 C 493.93049999999994 528.0717999999999 562.8104999999999 492.2317999999999 589.6904999999999 473.1927999999999 C 598.0772 465.9232999999999 603.1204999999999 454.7197999999999 601.9994999999999 443.5207999999999 z" stroke-linecap="round" />
</g>
</svg>