<?xml version="1.0" encoding="UTF-8" standalone="no" ?>
<!DOCTYPE svg PUBLIC "-//W3C//DTD SVG 1.1//EN" "http://www.w3.org/Graphics/SVG/1.1/DTD/svg11.dtd">
<svg xmlns="http://www.w3.org/2000/svg" xmlns:xlink="http://www.w3.org/1999/xlink" version="1.1" width="1080" height="1080" viewBox="0 0 1080 1080" xml:space="preserve">
<desc>Created with Fabric.js 5.2.4</desc>
<defs>
</defs>
<g transform="matrix(1 0 0 1 540 540)" id="60fe5f21-daea-48af-8e17-e3b0d82006c1"  >
<rect style="stroke: none; stroke-width: 1; stroke-dasharray: none; stroke-linecap: butt; stroke-dashoffset: 0; stroke-linejoin: miter; stroke-miterlimit: 4; fill: rgb(255,255,255); fill-rule: nonzero; opacity: 1; visibility: hidden;" vector-effect="non-scaling-stroke"  x="-540" y="-540" rx="0" ry="0" width="1080" height="1080" />
</g>
<g transform="matrix(1 0 0 1 540 540)" id="1db26a15-9128-4342-8758-0ff5c323ad2c"  >
</g>
<g transform="matrix(2.04 0 0 2.04 685.4 859.42)"  >
<path style="stroke: none; stroke-width: 1; stroke-dasharray: none; stroke-linecap: butt; stroke-dashoffset: 0; stroke-linejoin: miter; stroke-miterlimit: 4; fill: rgb(255,255,255); fill-rule: nonzero; opacity: 1;" vector-effect="non-scaling-stroke"  transform=" translate(-429.47, -436.45)" d="M 444.92 387.32 L 386.408 387.32 L 364.947 365.859 C 359.0173 359.9215 349.412 359.9215 343.482 365.859 C 337.5523 371.78479999999996 337.5523 381.382 343.482 387.32 L 366.326 410.164 L 366.326 496.32399999999996 C 366.326 504.70679999999993 373.13070000000005 511.49999999999994 381.50600000000003 511.49999999999994 C 389.87710000000004 511.49999999999994 396.682 504.70699999999994 396.682 496.32399999999996 L 396.682 459.078 L 486.377 459.078 L 486.377 496.32399999999996 C 486.377 504.70679999999993 493.1582 511.49999999999994 501.54900000000004 511.49999999999994 C 509.9279 511.49999999999994 516.729 504.70699999999994 516.729 496.32399999999996 L 516.7329060000001 439.015 C 516.7329060000001 432.7494 518.0493060000001 427.781 519.897006 423.929 L 470.39700600000003 374.42499999999995 C 462.12750600000004 381.84689999999995 453.499006 387.31999999999994 444.92000600000006 387.31999999999994 z" stroke-linecap="round" />
</g>
<g transform="matrix(2.04 0 0 2.04 911.55 699.37)"  >
<path style="stroke: none; stroke-width: 1; stroke-dasharray: none; stroke-linecap: butt; stroke-dashoffset: 0; stroke-linejoin: miter; stroke-miterlimit: 4; fill: rgb(255,255,255); fill-rule: nonzero; opacity: 1;" vector-effect="non-scaling-stroke"  transform=" translate(-540.16, -358.01)" d="M 594.64 359 C 590.8783 356.2227 584.6712 354.9297 580.062 355.1094 C 577.4058 337.1404 567.484 328.9924 557.121 325.4024 C 555.1718 311.3244 548.9882 301.0354 541.2189999999999 301.0354 C 533.3947999999999 301.0354 527.184 311.4574 525.281 325.6644 C 511.953 330.7425 501.18299999999994 341.7154 491.37899999999996 352.5164 C 487.2306 357.0711 482.8556 362.0125 478.32399999999996 366.72339999999997 L 526.586 414.98539999999997 C 527.38678 414.26273999999995 528.1212 413.6846 528.7852 413.2159 C 547.5622000000001 399.5949 575.5622000000001 413.75887 592.9332 397.8449 C 602.5816000000001 389.0207 606.5422000000001 367.7939 594.6402 359.0009 z" stroke-linecap="round" />
</g>
<g transform="matrix(2.04 0 0 2.04 638.67 665.19)"  >
<path style="stroke: none; stroke-width: 1; stroke-dasharray: none; stroke-linecap: butt; stroke-dashoffset: 0; stroke-linejoin: miter; stroke-miterlimit: 4; fill: rgb(255,255,255); fill-rule: nonzero; opacity: 1;" vector-effect="non-scaling-stroke"  transform=" translate(-406.5, -341.19)" d="M 467.36 359.12 L 349.69 312.987 L 345.6392 323.26000000000005 L 463.29920000000004 369.39700000000005 z" stroke-linecap="round" />
</g>
<g transform="matrix(2.04 0 0 2.04 249.91 179.31)"  >
<path style="stroke: none; stroke-width: 1; stroke-dasharray: none; stroke-linecap: butt; stroke-dashoffset: 0; stroke-linejoin: miter; stroke-miterlimit: 4; fill: rgb(255,255,255); fill-rule: nonzero; opacity: 1;" vector-effect="non-scaling-stroke"  transform=" translate(-216.06, -103.27)" d="M 270.84 103.27 C 270.84 133.524 246.31699999999998 158.047 216.063 158.047 C 185.809 158.047 161.28199999999998 133.524 161.28199999999998 103.27 C 161.28199999999998 73.01599999999999 185.80899999999997 48.489 216.063 48.489 C 246.317 48.489 270.84 73.01599999999999 270.84 103.27" stroke-linecap="round" />
</g>
<g transform="matrix(2.04 0 0 2.04 254.52 664.38)"  >
<path style="stroke: none; stroke-width: 1; stroke-dasharray: none; stroke-linecap: butt; stroke-dashoffset: 0; stroke-linejoin: miter; stroke-miterlimit: 4; fill: rgb(255,255,255); fill-rule: nonzero; opacity: 1;" vector-effect="non-scaling-stroke"  transform=" translate(-218.5, -341.17)" d="M 267.38 201.86 C 260.26279999999997 183.782 242.689 170.852 222.142 170.852 L 209.974 170.852 C 198.607 170.852 188.255 174.9575 179.951 181.543 C 179.06428 182.04691 178.16979999999998 182.50784000000002 177.33769999999998 183.1211 L 133.51369999999997 216.10510000000002 C 130.15819999999997 218.62070000000003 127.61139999999997 222.03480000000002 126.15039999999998 225.9567 L 99.38039999999998 297.7767 C 95.15769999999998 309.1167 100.91949999999999 321.7497 112.25939999999999 325.96070000000003 C 114.77889999999998 326.90601000000004 117.37269999999998 327.3591 119.90389999999998 327.3591 C 128.79059999999998 327.3591 137.14989999999997 321.8943 140.4389 313.0861 L 161.28289999999998 257.1761 L 161.28289999999998 316.9221 C 161.28289999999998 323.1955 162.5837 329.1641 164.76729999999998 334.6951 L 140.5013 480.31510000000003 C 138.0638 494.8971 147.92319999999998 508.69410000000005 162.5093 511.12710000000004 C 177.0993 513.5568000000001 190.8963 503.70520000000005 193.3253 489.11510000000004 L 213.91129999999998 365.60510000000005 L 218.21599999999998 365.60510000000005 L 238.80199999999996 489.11510000000004 C 241.23169999999996 503.69710000000003 255.03199999999995 513.5491000000001 269.614 511.12710000000004 C 284.20399999999995 508.6974 294.05899999999997 494.90810000000005 291.62199999999996 480.31510000000003 L 267.35599999999994 334.68510000000003 C 269.5473999999999 329.1539 270.84039999999993 323.18910000000005 270.84039999999993 316.91510000000005 L 270.84039999999993 279.9501 L 299.50839999999994 318.51210000000003 C 303.8091999999999 324.2855 310.41839999999996 327.3559 317.11339999999996 327.3559 C 321.65639999999996 327.3559 326.24229999999994 325.94570000000004 330.1604 323.03950000000003 C 339.8635 315.809 341.8904 302.07450000000006 334.66819999999996 292.37550000000005 z" stroke-linecap="round" />
</g>
</svg>