<svg xmlns="http://www.w3.org/2000/svg" version="1.1" xmlns:xlink="http://www.w3.org/1999/xlink" xmlns:svgjs="http://svgjs.com/svgjs" width="1080" height="1080"><svg xmlns="http://www.w3.org/2000/svg" xmlns:xlink="http://www.w3.org/1999/xlink" version="1.1" width="1080" height="1080" viewBox="0 0 1080 1080" xml:space="preserve">
<desc>Created with Fabric.js 5.2.4</desc>
<defs>
</defs>
<rect x="0" y="0" width="100%" height="100%" fill="transparent"></rect>
<g transform="matrix(1 0 0 1 540 540)" id="SvgjsG1001">
</g>
<g transform="matrix(1 0 0 1 540 540)" id="SvgjsG1000">
<rect style="stroke: none; stroke-width: 1; stroke-dasharray: none; stroke-linecap: butt; stroke-dashoffset: 0; stroke-linejoin: miter; stroke-miterlimit: 4; fill: rgb(255,255,255); fill-rule: nonzero; opacity: 1; visibility: hidden;" vector-effect="non-scaling-stroke" x="-540" y="-540" rx="0" ry="0" width="1080" height="1080"></rect>
</g>
<g transform="matrix(2.12 0 0 2.12 439.26 386.48)">
<path style="stroke: none; stroke-width: 1; stroke-dasharray: none; stroke-linecap: butt; stroke-dashoffset: 0; stroke-linejoin: miter; stroke-miterlimit: 4; fill: rgb(0,0,0); fill-rule: evenodd; opacity: 1;" vector-effect="non-scaling-stroke" transform=" translate(-280, -159.84)" d="M 280 139.84 C 268.969 139.84 260 148.8088 260 159.84 C 260 170.867 268.9688 179.84 280 179.84 C 291.0312 179.84 300 170.8673 300 159.84 C 300 148.809 291.0312 139.84 280 139.84" stroke-linecap="round"></path>
</g>
<g transform="matrix(1.77 0 0 1.77 540 884.1)">
<path style="stroke: none; stroke-width: 1; stroke-dasharray: none; stroke-linecap: butt; stroke-dashoffset: 0; stroke-linejoin: miter; stroke-miterlimit: 4; fill: rgb(75,67,43); fill-rule: evenodd; opacity: 1;" vector-effect="non-scaling-stroke" transform=" translate(-349.91, -433.66)" d="M 386.45 448.75 C 383.3797 445.8594 380.3914 442.8711 377.45779999999996 439.8086 C 377.23123999999996 439.58204 377.00857999999994 439.35938 376.77810999999997 439.1211 C 374.14921 436.3711 371.57890999999995 433.582 369.09060999999997 430.7617 C 367.93830999999994 429.4805 366.80940999999996 428.1601 365.68041 426.85150000000004 C 364.34060999999997 425.28120000000007 363.02810999999997 423.73040000000003 361.73901 422.1718 C 359.82881000000003 419.8593 357.94991 417.53900000000004 356.09841 415.1718 C 354.70781 413.4101 353.37961 411.6796 352.09061 409.98040000000003 C 351.41092000000003 409.05852000000004 350.68041000000005 408.17960000000005 350.00081 407.26160000000004 C 349.23128 408.30850000000004 348.41101 409.30850000000004 347.61801 410.35140000000007 C 346.39141 411.98030000000006 345.14141 413.60920000000004 343.82111000000003 415.2811000000001 C 342.25081000000006 417.28890000000007 340.66091000000006 419.2811000000001 339.05161000000004 421.2381000000001 C 337.27821000000006 423.3904000000001 335.46961000000005 425.5506000000001 333.61021000000005 427.71080000000006 C 332.4500100000001 429.03890000000007 331.27821000000006 430.33970000000005 330.11021000000005 431.6405000000001 C 328.02821000000006 433.96080000000006 325.91101000000003 436.2616000000001 323.73911000000004 438.55070000000006 C 323.34067000000005 438.98039000000006 322.93052000000006 439.42179000000004 322.52031000000005 439.8398000000001 C 319.55151000000006 442.9492000000001 316.48911000000004 445.96870000000007 313.36801 448.8984000000001 C 323.11801 456.0000000000001 336.09801000000004 460.0584000000001 349.80201 460.0584000000001 C 363.61800999999997 460.0584000000001 376.68101 455.9412000000001 386.45001 448.7494000000001" stroke-linecap="round"></path>
</g>
<g transform="matrix(2.17 0 0 2.17 540 722.29)">
<path style="stroke: none; stroke-width: 1; stroke-dasharray: none; stroke-linecap: butt; stroke-dashoffset: 0; stroke-linejoin: miter; stroke-miterlimit: 4; fill: rgb(0,0,0); fill-rule: evenodd; opacity: 1;" vector-effect="non-scaling-stroke" transform=" translate(-350.11, -339.84)" d="M 400.11 329.23 C 400.11 302.71000000000004 365.141 299.839 350.11 299.839 C 335.083 299.839 300.11 302.7101 300.11 329.23 C 300.11 352.007 323.192 379.839 350.11 379.839 C 377.03200000000004 379.839 400.11 352.007 400.11 329.23" stroke-linecap="round"></path>
</g>
<g transform="matrix(1.83 0 0 1.83 540 520.22)">
<path style="stroke: none; stroke-width: 1; stroke-dasharray: none; stroke-linecap: butt; stroke-dashoffset: 0; stroke-linejoin: miter; stroke-miterlimit: 4; fill: rgb(85,71,30); fill-rule: evenodd; opacity: 1;" vector-effect="non-scaling-stroke" transform=" translate(-350, -230.08)" d="M 420 199.84 C 397.941 199.84 380 181.899 380 159.84 C 380 137.778 397.941 119.84 420 119.84 C 442.059 119.84 460 137.778 460 159.84 C 460 181.899 442.059 199.84 420 199.84 M 280 199.84 C 257.941 199.84 240 181.899 240 159.84 C 240 137.778 257.941 119.84 280 119.84 C 302.059 119.84 320 137.778 320 159.84 C 320 181.899 302.059 199.84 280 199.84 M 630 119.84 C 630 77.719 572.789 47.211 517.46 17.710000000000008 C 511.23730000000006 14.389700000000008 505.05 11.088900000000008 498.968 7.788100000000007 C 469.488 -8.242899999999992 442.761 0.4795000000000069 419.60900000000004 33.749100000000006 C 418.01130000000006 36.04990000000001 414.96060000000006 40.17880000000001 409.379 39.83890000000001 L 290.619 39.83890000000001 C 285.0174 40.256870000000006 281.98620000000005 36.04980000000001 280.389 33.74910000000001 C 257.237 0.47910000000000963 230.537 -8.242899999999985 201.03000000000003 7.788100000000014 C 194.94800000000004 11.088900000000015 188.76000000000002 14.389700000000015 182.53800000000004 17.710000000000015 C 127.21000000000004 47.210000000000015 69.99800000000003 77.71800000000002 69.99800000000003 119.84 C 69.99800000000003 141.27 79.27920000000003 158.328 90.01000000000003 178.09 C 102.35800000000003 200.82 116.17000000000003 226.211 119.33800000000004 263.65999999999997 C 125.51770000000003 259.50769999999994 133.61900000000003 253.01899999999998 142.58800000000002 243.11699999999996 C 157.95900000000003 226.16799999999995 208.959 161.34699999999998 220.03700000000003 38.936999999999955 C 220.53700000000003 33.436999999999955 225.44720000000004 29.448699999999953 230.89600000000004 29.878399999999957 C 236.40770000000003 30.378399999999957 240.45850000000004 35.23779999999996 239.95850000000004 40.73739999999996 C 229.09950000000003 160.55739999999994 181.09950000000003 228.66739999999996 161.31750000000005 252.07739999999995 C 161.83703000000006 253.85859999999997 162.39560000000006 255.84689999999995 163.08700000000005 258.3196 C 167.33700000000005 273.57759999999996 174.43900000000005 299.09659999999997 188.71600000000004 324.9366 C 188.72771900000004 324.96785 188.75896900000004 324.979569 188.76678100000004 324.9991 L 189.65740100000005 326.6085 C 198.51680100000004 342.6395 207.01640100000006 357.9995 219.99740100000005 370.2495 L 219.99740100000005 319.83950000000004 C 219.99740100000005 314.32000000000005 224.46620100000004 309.83950000000004 229.99740100000005 309.83950000000004 C 235.52860100000007 309.83950000000004 239.99740100000005 314.32000000000005 239.99740100000005 319.83950000000004 L 239.99740100000005 419.83950000000004 C 239.99740100000005 442.73750000000007 244.57550100000006 457.25750000000005 252.55640100000005 459.6675 C 262.216601 462.56980000000004 279.62640100000004 452.7183 298.408401 435.4685 C 309.96740100000005 424.7885 321.928401 411.3205 332.517401 397.1675 C 301.966401 388.09720000000004 280.107401 356.8195 280.107401 329.22950000000003 C 280.107401 298.7685 306.927401 279.8385 350.107401 279.8385 C 393.279401 279.8385 420.107401 298.7685 420.107401 329.22950000000003 C 420.107401 356.86650000000003 398.15840099999997 388.21750000000003 367.51740099999995 397.21750000000003 C 379.48640099999994 413.21750000000003 393.21640099999996 428.2995 406.12640099999993 439.4875 C 423.11840099999995 454.1865 438.53640099999996 462.3395 447.43840099999994 459.6675 C 455.41890099999995 457.25730000000004 459.99740099999997 442.7375 459.99740099999997 419.83950000000004 L 459.99740099999997 319.83950000000004 C 459.99740099999997 314.32000000000005 464.46620099999996 309.83950000000004 469.99740099999997 309.83950000000004 C 475.528601 309.83950000000004 479.99740099999997 314.32000000000005 479.99740099999997 319.83950000000004 L 479.99740099999997 370.25750000000005 C 492.977401 357.99950000000007 501.477401 342.64050000000003 510.33740099999994 326.6095 L 511.22802099999996 325.00010000000003 C 511.23583299999996 324.98056900000006 511.26708299999996 324.96885000000003 511.2788019999999 324.93760000000003 C 525.555802 299.09760000000006 532.657802 273.57860000000005 536.907802 258.3206 C 537.599212 255.8479 538.157802 253.8597 538.6773019999999 252.07840000000002 C 518.896302 228.66840000000002 470.89630199999993 160.5584 460.0363019999999 40.73840000000001 C 459.5363019999999 35.23840000000001 463.5871019999999 30.37940000000001 469.0988019999999 29.87940000000001 C 474.5168019999999 29.46143000000001 479.4578019999999 33.43800000000001 479.9578019999999 38.93800000000001 C 491.0358019999999 161.348 542.0358019999999 226.168 557.4068019999999 243.11800000000002 C 566.3756019999998 253.02030000000002 574.4658019999998 259.509 580.6688019999999 263.649 C 583.8250019999999 226.211 597.637802 200.821 609.984802 178.09 C 620.714802 158.328 629.9968019999999 141.27 629.9968019999999 119.84" stroke-linecap="round"></path>
</g>
<g transform="matrix(2.11 0 0 2.11 691.29 383.44)">
<path style="stroke: none; stroke-width: 1; stroke-dasharray: none; stroke-linecap: butt; stroke-dashoffset: 0; stroke-linejoin: miter; stroke-miterlimit: 4; fill: rgb(0,0,0); fill-rule: evenodd; opacity: 1;" vector-effect="non-scaling-stroke" transform=" translate(-420, -159.84)" d="M 420 139.84 C 408.969 139.84 400 148.8088 400 159.84 C 400 170.867 408.9688 179.84 420 179.84 C 431.0312 179.84 440 170.8673 440 159.84 C 440 148.809 431.0312 139.84 420 139.84" stroke-linecap="round"></path>
</g>
</svg><style>@media (prefers-color-scheme: light) { :root { filter: contrast(1) brightness(1); } }
</style></svg>